<svg width="1000" height="274.954" version="1.0" xmlns="http://www.w3.org/2000/svg"><defs><pattern patternUnits="userSpaceOnUse" width="124.408" height="70.875" patternTransform="translate(513.78 432.281)" id="prefix__a"><g fill-rule="evenodd"><path style="marker:none" color="#000" fill="#ff0" stroke-width=".788" stroke-miterlimit="4.467" overflow="visible" d="M513.78 432.283h124.016v70.866H513.78z" transform="translate(-513.78 -432.281)"/><path d="M520.875 432.281l-6.688 6.688v3.531l10.22-10.219h-3.532zm7.063 0l-13.75 13.75v3.563L531.5 432.28h-3.563zm7.093 0l-20.843 20.844v3.563l24.406-24.407h-3.563zm7.094 0l-27.938 27.938v3.531l31.47-31.469h-3.532zm7.094 0l-35.032 35.031v3.532l38.563-38.563h-3.531zm7.093 0l-42.125 42.125v3.531l45.657-45.656h-3.532zm7.063 0L514.187 481.5v3.531l52.75-52.75h-3.562zm7.094 0l-56.282 56.281v3.563l59.844-59.844h-3.562zm7.093 0l-63.375 63.375v3.563l66.907-66.938h-3.532zm7.094 0l-70.468 70.469v.406h3.125l70.875-70.875h-3.532zm7.063 0l-70.844 70.875h3.531l70.875-70.875h-3.562zm7.093 0l-70.875 70.875h3.563l70.875-70.875h-3.563zM535.04 503.15l70.865-70.867h3.544l-70.866 70.867h-3.544zM542.126 503.15l70.866-70.867h3.543L545.67 503.15h-3.543zM549.213 503.15l70.866-70.867h3.543l-70.866 70.867h-3.543zM556.3 503.15l70.865-70.867h3.544l-70.866 70.867h-3.544zM563.386 503.15l70.866-70.867h3.543L566.93 503.15h-3.543zM637.781 435.844l-67.312 67.312h3.562l63.75-63.781v-3.531zM637.781 442.938l-60.218 60.218h3.53l56.688-56.687v-3.531zM638.188 449.594l-53.532 53.562h3.532l50-50v-3.562zM638.188 456.688l-46.47 46.468h3.563l42.907-42.906v-3.563zM638.188 463.781l-39.375 39.375h3.562l35.813-35.844v-3.53zM638.188 470.875l-32.282 32.281h3.532l28.75-28.75v-3.531zM637.406 478.75L613 503.156h3.531l20.875-20.875v-3.531zM637.406 485.844l-17.312 17.312h3.531l13.781-13.781v-3.531zM638.188 492.125l-11.032 11.031h3.563l7.468-7.469v-3.562zm0 7.094l-3.938 3.937h3.531l.407-.406v-3.531zM514.188 432.281v3.125l3.125-3.125h-3.125z" transform="translate(-513.78 -432.281)"/></g></pattern><pattern patternUnits="userSpaceOnUse" width="124.408" height="70.875" patternTransform="translate(513.78 432.281)" id="prefix__b"><g fill-rule="evenodd"><path style="marker:none" color="#000" fill="#ff0" stroke-width=".788" stroke-miterlimit="4.467" overflow="visible" d="M513.78 432.283h124.016v70.866H513.78z" transform="translate(-513.78 -432.281)"/><path d="M520.875 432.281l-6.688 6.688v3.531l10.22-10.219h-3.532zm7.063 0l-13.75 13.75v3.563L531.5 432.28h-3.563zm7.093 0l-20.843 20.844v3.563l24.406-24.407h-3.563zm7.094 0l-27.938 27.938v3.531l31.47-31.469h-3.532zm7.094 0l-35.032 35.031v3.532l38.563-38.563h-3.531zm7.093 0l-42.125 42.125v3.531l45.657-45.656h-3.532zm7.063 0L514.187 481.5v3.531l52.75-52.75h-3.562zm7.094 0l-56.282 56.281v3.563l59.844-59.844h-3.562zm7.093 0l-63.375 63.375v3.563l66.907-66.938h-3.532zm7.094 0l-70.468 70.469v.406h3.125l70.875-70.875h-3.532zm7.063 0l-70.844 70.875h3.531l70.875-70.875h-3.562zm7.093 0l-70.875 70.875h3.563l70.875-70.875h-3.563zM535.04 503.15l70.865-70.867h3.544l-70.866 70.867h-3.544zM542.126 503.15l70.866-70.867h3.543L545.67 503.15h-3.543zM549.213 503.15l70.866-70.867h3.543l-70.866 70.867h-3.543zM556.3 503.15l70.865-70.867h3.544l-70.866 70.867h-3.544zM563.386 503.15l70.866-70.867h3.543L566.93 503.15h-3.543zM637.781 435.844l-67.312 67.312h3.562l63.75-63.781v-3.531zM637.781 442.938l-60.218 60.218h3.53l56.688-56.687v-3.531zM638.188 449.594l-53.532 53.562h3.532l50-50v-3.562zM638.188 456.688l-46.47 46.468h3.563l42.907-42.906v-3.563zM638.188 463.781l-39.375 39.375h3.562l35.813-35.844v-3.53zM638.188 470.875l-32.282 32.281h3.532l28.75-28.75v-3.531zM637.406 478.75L613 503.156h3.531l20.875-20.875v-3.531zM637.406 485.844l-17.312 17.312h3.531l13.781-13.781v-3.531zM638.188 492.125l-11.032 11.031h3.563l7.468-7.469v-3.562zm0 7.094l-3.938 3.937h3.531l.407-.406v-3.531zM514.188 432.281v3.125l3.125-3.125h-3.125z" transform="translate(-513.78 -432.281)"/></g></pattern><pattern patternUnits="userSpaceOnUse" width="124.408" height="70.875" patternTransform="translate(513.78 432.281)" id="prefix__c"><g fill-rule="evenodd"><path style="marker:none" color="#000" fill="#ff0" stroke-width=".788" stroke-miterlimit="4.467" overflow="visible" d="M513.78 432.283h124.016v70.866H513.78z" transform="translate(-513.78 -432.281)"/><path d="M520.875 432.281l-6.688 6.688v3.531l10.22-10.219h-3.532zm7.063 0l-13.75 13.75v3.563L531.5 432.28h-3.563zm7.093 0l-20.843 20.844v3.563l24.406-24.407h-3.563zm7.094 0l-27.938 27.938v3.531l31.47-31.469h-3.532zm7.094 0l-35.032 35.031v3.532l38.563-38.563h-3.531zm7.093 0l-42.125 42.125v3.531l45.657-45.656h-3.532zm7.063 0L514.187 481.5v3.531l52.75-52.75h-3.562zm7.094 0l-56.282 56.281v3.563l59.844-59.844h-3.562zm7.093 0l-63.375 63.375v3.563l66.907-66.938h-3.532zm7.094 0l-70.468 70.469v.406h3.125l70.875-70.875h-3.532zm7.063 0l-70.844 70.875h3.531l70.875-70.875h-3.562zm7.093 0l-70.875 70.875h3.563l70.875-70.875h-3.563zM535.04 503.15l70.865-70.867h3.544l-70.866 70.867h-3.544zM542.126 503.15l70.866-70.867h3.543L545.67 503.15h-3.543zM549.213 503.15l70.866-70.867h3.543l-70.866 70.867h-3.543zM556.3 503.15l70.865-70.867h3.544l-70.866 70.867h-3.544zM563.386 503.15l70.866-70.867h3.543L566.93 503.15h-3.543zM637.781 435.844l-67.312 67.312h3.562l63.75-63.781v-3.531zM637.781 442.938l-60.218 60.218h3.53l56.688-56.687v-3.531zM638.188 449.594l-53.532 53.562h3.532l50-50v-3.562zM638.188 456.688l-46.47 46.468h3.563l42.907-42.906v-3.563zM638.188 463.781l-39.375 39.375h3.562l35.813-35.844v-3.53zM638.188 470.875l-32.282 32.281h3.532l28.75-28.75v-3.531zM637.406 478.75L613 503.156h3.531l20.875-20.875v-3.531zM637.406 485.844l-17.312 17.312h3.531l13.781-13.781v-3.531zM638.188 492.125l-11.032 11.031h3.563l7.468-7.469v-3.562zm0 7.094l-3.938 3.937h3.531l.407-.406v-3.531zM514.188 432.281v3.125l3.125-3.125h-3.125z" transform="translate(-513.78 -432.281)"/></g></pattern></defs><g transform="matrix(1.10088 0 0 1.10088 -81.92 -147.774)" stroke="#000"><path d="M75.49 337.711l-.576-163.247 35.125-38.292 669.399-1.44 35.413 40.596 136.47 18.715 2.88 3.742v108.832l-3.167 5.758-174.188 24.185-16.123 46.93H595.75l-2.591-7.198h-66.796l-4.607 7.198H351.023l-4.895-6.622-64.205.287-3.743 6.335H108.312z" fill-rule="evenodd"/><path d="M82.111 192.603l1.152-18.426 31.67-30.52 128.986-2.303-1.152 57.583z" fill-rule="evenodd"/><path d="M209.37 139.627l383.5-1.152h144.532l40.452.144 34.982 40.164 169.437 23.296-.144 101.297-208.45 26.85-16.123 47.032-644.926-.103-29.943-39.444-1.151-99.042v-63.917l32.246-34.261z" fill-rule="evenodd"/><path d="M81.68 252.633l899.873-.72v-50.097l-168.79-23.105-731.227.072z" fill-rule="evenodd"/><path d="M445.006 357.181h28.344v-21.28h-28.344zm3.531-3.562v-14.156h21.282v14.156z" style="marker:none" overflow="visible" fill-rule="evenodd" stroke-linecap="square" stroke-linejoin="round"/><path d="M439.757 362.54H379.52l-3.544-5.25v-23.097l3.544-3.543h60.9zM642.243 329.233v37.27h84.378l3.67-16.01v-21.26z" fill-rule="evenodd"/><path style="marker:none" overflow="visible" fill-rule="evenodd" stroke-linecap="square" stroke-linejoin="round" d="M439.992 332.859h19.061v29.563h-19.061zM738.09 328.887v14.026h21.282v-14.026zm3.563 3.187h14.156l-.287 7.652h-13.869z"/><path d="M417.195 333.7a4.886 4.886 0 01-4.868 4.885 4.886 4.886 0 01-4.904-4.85 4.886 4.886 0 014.832-4.921 4.886 4.886 0 014.94 4.813" style="marker:none" overflow="visible" fill-rule="evenodd" stroke-width=".709"/><rect ry="0" rx="0" y="326.757" x="406.37" height="23.616" width="12.215" style="marker:none" overflow="visible" fill-rule="evenodd" stroke-width=".709"/><path style="marker:none" overflow="visible" fill-rule="evenodd" stroke-width=".709" d="M406.59 326.771h12.092v13.82H406.59zM435.381 338.287h20.73v19.866h-20.73z"/><g fill-rule="evenodd" stroke-width=".645"><path d="M435.381 358.153l20.586-19.866M455.679 357.721l-19.866-19.146"/></g><path style="marker:none" overflow="visible" fill-rule="evenodd" stroke-width=".709" d="M438.836 342.318h13.532v11.517h-13.532z"/><path style="marker:none" overflow="visible" fill-rule="evenodd" stroke-width=".709" d="M440.564 344.045h10.077v8.062h-10.077z"/><path d="M446.322 348.22a1.008 1.008 0 01-1.004 1.008 1.008 1.008 0 01-1.011-1 1.008 1.008 0 01.996-1.015 1.008 1.008 0 011.019.992M451.976 363.911a4.215 4.215 0 01-4.199 4.215 4.215 4.215 0 01-4.23-4.183 4.215 4.215 0 014.168-4.246 4.215 4.215 0 014.26 4.152M417.568 333.679a4.886 4.886 0 01-4.868 4.886 4.886 4.886 0 01-4.904-4.85 4.886 4.886 0 014.831-4.922 4.886 4.886 0 014.94 4.814" style="marker:none" overflow="visible" fill-rule="evenodd" stroke-width=".709"/><path style="marker:none" overflow="visible" fill-rule="evenodd" stroke-width=".645" d="M641.725 328.793h21.26v37.29h-21.26z"/><path style="marker:none" overflow="visible" fill-rule="evenodd" stroke-width=".645" d="M643.317 328.278h19.346v23.309h-19.346zM677.158 330.972h31.89v31.89h-31.89z"/><path style="marker:none" overflow="visible" fill-rule="evenodd" stroke-width=".645" d="M686.661 341.602h13.005v12.127h-13.005z"/><ellipse style="marker:none" cx="712.23" cy="348.454" rx="2.036" ry="1.934" overflow="visible" fill-rule="evenodd" stroke-width=".709"/><ellipse style="marker:none" cx="719.61" cy="348.185" rx="2.036" ry="1.934" overflow="visible" fill-rule="evenodd" stroke-width=".709"/><ellipse style="marker:none" cx="721.928" cy="361.367" rx="3.878" ry="3.684" overflow="visible" fill-rule="evenodd" stroke-width=".709"/><ellipse style="marker:none" cx="715.006" cy="330.422" rx="3.878" ry="3.684" overflow="visible" fill-rule="evenodd" stroke-width=".709"/><path d="M727.221 365.438l6.108 3.258-5.7-5.294zM730.071 370.732l6.515-7.33" fill-rule="evenodd"/><path style="marker:none" overflow="visible" fill-rule="evenodd" stroke-width=".645" d="M374.366 368.191h21.26v-37.29h-21.26z"/><path style="marker:none" overflow="visible" fill-rule="evenodd" stroke-width=".645" d="M375.382 368.13h19.346v-23.309h-19.346z"/><path d="M81.536 252.561l900.737-.036M212.824 139.627V252.2M81.847 264.808l130.774.09.203 112.114M351.099 139.19v113.36M529.033 139.19v113.302M667.878 138.38v114.116M792.88 155.627v96.52" fill-rule="evenodd" stroke-width="1.619"/><path d="M352.608 330.058l-77.276-.13s-1.39.945-2.373 2.266c-.988 1.327-.82 3.807-.82 3.807l8.21 43.24 65.438-.045 9.636-43.195s.416-1.723-.35-3.197c-.863-1.661-2.465-2.746-2.465-2.746z" fill-rule="evenodd" stroke-width="1.372"/><path stroke-width="1.47" d="M87.781 271.596h130.801v9.855H87.781zM219.058 271.596h130.801v9.855H219.058z" transform="matrix(.49598 0 0 1 37.882 -55.129)"/><path stroke-width="1.47" d="M349.771 271.596h130.801v9.855H349.771zM481.059 271.596H611.86v9.855H481.059zM612.348 271.596h130.801v9.855H612.348zM743.636 271.596h130.801v9.855H743.636z" transform="matrix(.49598 0 0 1 37.882 -55.129)"/><path stroke-width="1.374" d="M874.876 271.547h113.047v9.952H874.876z" transform="matrix(.49598 0 0 1 37.882 -55.129)"/><path stroke-width="1.314" d="M797.28 195.24h184.198v49.116H797.28z"/><g><path stroke-width="1.47" d="M87.781 271.596h130.801v9.855H87.781zM219.058 271.596h130.801v9.855H219.058z" transform="matrix(.50591 0 0 1 482.11 -54.99)"/><path stroke-width="1.47" d="M349.771 271.596h130.801v9.855H349.771zM481.059 271.596H611.86v9.855H481.059zM612.348 271.596h130.801v9.855H612.348zM743.636 271.596h130.801v9.855H743.636z" transform="matrix(.50591 0 0 1 482.11 -54.99)"/><path stroke-width="1.374" d="M874.876 271.547h113.047v9.952H874.876z" transform="matrix(.50591 0 0 1 482.11 -54.99)"/></g><path d="M175.303 181.122l6.922.203m13.233 20.359l-18.526-18.934M499.411 181.122l6.922.203m13.233 20.359L501.04 182.75" fill-rule="evenodd"/><path d="M599.693 329.876l-77.287-.129s-1.389.93-2.373 2.228c-.989 1.304-.82 3.74-.82 3.74l8.211 42.495 65.448-.045 9.637-42.45s.416-1.693-.35-3.141c-.863-1.633-2.466-2.698-2.466-2.698z" fill-rule="evenodd" stroke-width="1.36"/></g></svg>