<svg width="1000" height="139.596" xmlns="http://www.w3.org/2000/svg"><g transform="matrix(.23557 0 0 .23557 433.94 -270.15)" stroke="#000"><path d="M-17.904 1226.793c-458.908.3-743.969 31.104-1013.152 34.506-485.597 6.136-690.255 65.947-810.344 185.358 115.589 130.354 383.546 187.628 796.74 193.783 594.045 8.849 1778.483 34.27 2710.533-31.234 564.73-39.688 641.103-97.193 686.82-156.605 2.18-2.887 2.25-8.988 0-11.89-45.717-59.412-122.09-116.916-686.82-156.604-509.715-35.822-1129.923-57.678-1683.777-57.314z"/><path d="M30.19 1240.533c-458.909.278-872.263 14.63-1139.465 47.381-589.688 72.28-604.445 87.54-684.032 155.461 79.587 67.921 94.344 83.182 684.032 155.46 589.687 72.28 1891.192 54.937 2823.242-5.495 564.73-36.616 641.103-89.668 686.82-144.48 2.18-2.664 2.25-8.292 0-10.97-45.717-54.812-122.09-107.864-686.82-144.48-509.715-33.048-1129.923-53.212-1683.778-52.877z"/><rect ry="125.827" y="1314.785" x="1211.63" height="253.597" width="513.996"/><circle cx="1761.254" cy="1434.923" r="10.649"/><path d="M-117.713 1241.994v77.3c1.273-.297 2.46-.581 3.78-.876 6.777-8.954 10.615-21.495 10.991-37.787-.376-16.293-4.214-28.836-10.992-37.79-1.322-.295-2.503-.549-3.779-.847z"/><g transform="matrix(-.99961 -.00267 -.0182 .81656 1465.56 718.41)" stroke-width="1.107"><path d="M1565.698 681.794h4.49a3.118 3.118 0 013.125 3.125v13.392a3.118 3.118 0 01-3.125 3.125h-9.955a3.118 3.118 0 01-3.125-3.125v-7.684c0-7.175 4.98-8.833 8.59-8.833z"/><rect ry="1.425" y="689.537" x="1558.262" height="7.895" width="20.04"/><rect ry="1.425" y="685.694" x="1573.346" height="8.245" width="84.851"/><path d="M1658.197 686.903v7.036l135.52-1.53v-3.976z"/><path d="M1656.64 680.55c8.26 2.293 14.504 2.548 20.361 6.558l-1.892 7.392c-5.433 2.235-10.522 4.996-17.981 4.13z"/></g><path d="M-117.713 1241.994c-11.709-2.739-21.964-5.5-37.53-5.654-5.753-.057-12.25.235-19.84 1.005-18.615 2.562-28.732 25.188-29.542 43.286.81 18.097 10.927 40.722 29.543 43.283 28.125 2.856 41.327-.867 57.369-4.62zM-117.713 1576.237v77.3c1.273-.297 2.46-.581 3.78-.876 6.777-8.954 10.615-21.495 10.991-37.788-.376-16.292-4.214-28.835-10.992-37.789-1.322-.295-2.503-.549-3.779-.847z"/><g transform="matrix(-.99961 -.00267 -.0182 .81656 1465.56 1052.653)" stroke-width="1.107"><path d="M1565.698 681.794h4.49a3.118 3.118 0 013.125 3.125v13.392a3.118 3.118 0 01-3.125 3.125h-9.955a3.118 3.118 0 01-3.125-3.125v-7.684c0-7.175 4.98-8.833 8.59-8.833z"/><rect width="20.04" height="7.895" x="1558.262" y="689.537" ry="1.425"/><rect width="84.851" height="8.245" x="1573.346" y="685.694" ry="1.425"/><path d="M1658.197 686.903v7.036l135.52-1.53v-3.976z"/><path d="M1656.64 680.55c8.26 2.293 14.504 2.548 20.361 6.558l-1.892 7.392c-5.433 2.235-10.522 4.996-17.981 4.13z"/></g><path d="M-117.713 1576.237c-11.709-2.739-21.964-5.5-37.53-5.655-5.753-.057-12.25.236-19.84 1.006-18.615 2.561-28.732 25.188-29.542 43.285.81 18.098 10.927 40.723 29.543 43.284 28.125 2.855 41.327-.868 57.369-4.62zM187.668 1241.994v77.3c-1.272-.297-2.46-.581-3.779-.876-6.778-8.954-10.616-21.495-10.992-37.787.376-16.293 4.214-28.836 10.992-37.79 1.323-.295 2.503-.549 3.78-.847z"/><g transform="matrix(.99961 -.00267 .0182 .81656 -1395.604 718.41)" stroke-width="1.107"><path d="M1565.698 681.794h4.49a3.118 3.118 0 013.125 3.125v13.392a3.118 3.118 0 01-3.125 3.125h-9.955a3.118 3.118 0 01-3.125-3.125v-7.684c0-7.175 4.98-8.833 8.59-8.833z"/><rect width="20.04" height="7.895" x="1558.262" y="689.537" ry="1.425"/><rect width="84.851" height="8.245" x="1573.346" y="685.694" ry="1.425"/><path d="M1658.197 686.903v7.036l135.52-1.53v-3.976z"/><path d="M1656.64 680.55c8.26 2.293 14.504 2.548 20.361 6.558l-1.892 7.392c-5.433 2.235-10.522 4.996-17.981 4.13z"/></g><path d="M187.668 1241.994c11.709-2.739 21.964-5.5 37.53-5.654 5.754-.057 12.25.235 19.84 1.005 18.616 2.562 28.733 25.188 29.543 43.286-.81 18.097-10.927 40.722-29.543 43.283-28.126 2.856-41.328-.867-57.37-4.62zM187.668 1576.237v77.3c-1.272-.297-2.46-.581-3.779-.876-6.778-8.954-10.616-21.495-10.992-37.788.376-16.292 4.214-28.835 10.992-37.789 1.323-.295 2.503-.549 3.78-.847z"/><g transform="matrix(.99961 -.00267 .0182 .81656 -1395.604 1052.653)" stroke-width="1.107"><path d="M1565.698 681.794h4.49a3.118 3.118 0 013.125 3.125v13.392a3.118 3.118 0 01-3.125 3.125h-9.955a3.118 3.118 0 01-3.125-3.125v-7.684c0-7.175 4.98-8.833 8.59-8.833z"/><rect ry="1.425" y="689.537" x="1558.262" height="7.895" width="20.04"/><rect ry="1.425" y="685.694" x="1573.346" height="8.245" width="84.851"/><path d="M1658.197 686.903v7.036l135.52-1.53v-3.976z"/><path d="M1656.64 680.55c8.26 2.293 14.504 2.548 20.361 6.558l-1.892 7.392c-5.433 2.235-10.522 4.996-17.981 4.13z"/></g><path d="M187.668 1576.237c11.709-2.739 21.964-5.5 37.53-5.655 5.754-.057 12.25.236 19.84 1.006 18.616 2.561 28.733 25.188 29.543 43.285-.81 18.098-10.927 40.723-29.543 43.284-28.126 2.855-41.328-.868-57.37-4.62z"/><rect width="513.996" height="253.597" x="1017.303" y="1314.785" ry="69.472"/><path d="M-166.266 1236.022l-63.209 67.332-706.289-5.497-111.3 67.33 1.802 81.145-1.803 81.143 111.301 67.33 706.29-5.496 63.208 67.33h399.864l59.086-59.086 898.662-.688.687-24.047h72.14l103.745-88.629.01-8.01h.043l-.021-29.847.021-29.85h-.043l-.01-8.01-103.744-88.63h-72.14l-.688-24.047-898.662-.686-59.086-59.088zM375.776 1147.297c-25.387.05-48.092 3.139-63.036 8.485-29.678 10.617-38.158 14.111-54.092 27.153 16.964 12.85 22.515 18.199 54.092 28.528 31.98 10.46 106.19 11.187 156.184-.984 33.81-8.232 50.533-20.69 52.371-25.187.12-.477.124-1.485 0-1.965-1.204.383-20.965-18.73-52.371-26.56-27.997-6.98-62.509-9.53-93.148-9.47zM375.776 1666.707c-25.387.05-48.092 3.14-63.036 8.485-29.678 10.617-38.158 14.112-54.092 27.154 16.964 12.85 22.515 18.198 54.092 28.527 31.98 10.46 106.19 11.187 156.184-.984 33.81-8.231 50.533-20.69 52.371-25.187.12-.477.124-1.485 0-1.964-1.204.382-20.965-18.731-52.371-26.562-27.997-6.98-62.509-9.529-93.148-9.469z"/><path d="M-260.398 1384.744a63.156 63.156 0 00-63.157 63.156 63.156 63.156 0 0019.637 45.666h87.11a63.156 63.156 0 0019.566-45.666 63.156 63.156 0 00-63.156-63.156zM1557.647 1410.321v77.301c-1.272-.298-2.46-.582-3.779-.877-6.778-8.954-10.616-21.494-10.992-37.787.376-16.293 4.214-28.835 10.992-37.79 1.323-.295 2.503-.548 3.78-.847z"/><g transform="matrix(.99961 -.00267 .0182 .81656 -25.625 886.738)" stroke-width="1.107"><path d="M1565.698 681.794h4.49a3.118 3.118 0 013.125 3.125v13.392a3.118 3.118 0 01-3.125 3.125h-9.955a3.118 3.118 0 01-3.125-3.125v-7.684c0-7.175 4.98-8.833 8.59-8.833z"/><rect ry="1.425" y="689.537" x="1558.262" height="7.895" width="20.04"/><rect ry="1.425" y="685.694" x="1573.346" height="8.245" width="84.851"/><path d="M1658.197 686.903v7.036l135.52-1.53v-3.976z"/><path d="M1656.64 680.55c8.26 2.293 14.504 2.548 20.361 6.558l-1.892 7.392c-5.433 2.235-10.522 4.996-17.981 4.13z"/></g><path d="M1557.647 1410.321c11.709-2.738 21.964-5.499 37.53-5.654 5.754-.057 12.25.235 19.84 1.006 18.616 2.561 28.733 25.187 29.543 43.285-.81 18.097-10.927 40.722-29.543 43.283-28.126 2.856-41.328-.867-57.37-4.619zM-4.861 1355.736c-57.674.292-112.854 10.342-113.028 40.37.294 50.572 156.612 44.48 218.096 30.533 31.701-6.008 44.374-14.373 65.924-29.287.076-.299.104-.786.092-1.246.012-.46-.016-.948-.092-1.247-21.55-14.914-34.223-23.279-65.924-29.287-24.978-5.666-65.607-10.035-105.068-9.836zM-4.861 1455.359c-57.674.29-112.854 10.341-113.028 40.369.294 50.573 156.612 44.481 218.096 30.533 31.701-6.008 44.374-14.372 65.924-29.287.076-.298.104-.786.092-1.246.012-.46-.016-.948-.092-1.246-21.55-14.915-34.223-23.28-65.924-29.287-24.978-5.667-65.607-10.036-105.068-9.836zM-511.08 1338.105l-186.555 9.715-.972 35.951.972 35.952 186.555 9.716c80.405.598 104.482-28.187 113.682-45.668-9.2-17.48-33.277-46.263-113.682-45.666zM-511.24 1465.391l-166.095 7.648-.866 28.3.866 28.302 166.096 7.649c71.587.47 93.024-22.19 101.215-35.95-8.191-13.761-29.628-36.42-101.215-35.949z"/><circle r="24.291" cy="1446.928" cx="-261.37"/><path d="M-531.485 1435.268h274.973v19.433h-274.973zM-559.663 1439.155h27.692v10.202h-27.692z"/><circle cx="-1111.552" cy="1334.218" r="11.66"/><circle r="11.66" cy="1334.218" cx="-1077.545"/><g transform="translate(0 222.505)"><circle r="11.66" cy="1334.218" cx="-1111.552"/><circle cx="-1077.545" cy="1334.218" r="11.66"/></g><circle r="17.004" cy="1390.087" cx="-1213.088"/><path d="M-1069.917 1411.059v77.3c1.273-.297 2.46-.582 3.78-.877 6.778-8.953 10.616-21.494 10.992-37.787-.376-16.293-4.214-28.835-10.992-37.789-1.323-.295-2.503-.549-3.78-.847z"/><g transform="matrix(-.99961 -.00267 -.0182 .81656 513.356 887.475)" stroke-width="1.107"><path d="M1565.698 681.794h4.49a3.118 3.118 0 013.125 3.125v13.392a3.118 3.118 0 01-3.125 3.125h-9.955a3.118 3.118 0 01-3.125-3.125v-7.684c0-7.175 4.98-8.833 8.59-8.833z"/><rect width="20.04" height="7.895" x="1558.262" y="689.537" ry="1.425"/><rect width="84.851" height="8.245" x="1573.346" y="685.694" ry="1.425"/><path d="M1658.197 686.903v7.036l135.52-1.53v-3.976z"/><path d="M1656.64 680.55c8.26 2.293 14.504 2.548 20.361 6.558l-1.892 7.392c-5.433 2.235-10.522 4.996-17.981 4.13z"/></g><path d="M-1069.917 1411.059c-11.708-2.739-21.964-5.5-37.529-5.655-5.754-.057-12.25.236-19.84 1.006-18.616 2.561-28.733 25.188-29.543 43.285.81 18.098 10.927 40.722 29.543 43.284 28.126 2.855 41.327-.868 57.37-4.62z"/><circle cx="-1213.088" cy="1502.797" r="17.004"/><circle r="11.174" cy="1447.414" cx="-1341.344"/><path d="M-1611.945 1435.268h46.639v26.234h-46.639z"/><g transform="matrix(.87593 -.12517 .12288 .86875 -321.696 67.316)" stroke-width="1.135"><rect width="54.412" height="18.461" x="-1586.682" y="1250.658" ry="2.748"/><rect width="22.673" height="10.306" x="-1582.278" y="1254.572" ry="5.153"/><ellipse cx="-1543.116" cy="1259.897" rx="5.496" ry="5.325"/></g><g transform="matrix(.87593 .12517 .12288 -.86875 -321.696 2819.214)" stroke-width="1.135"><rect ry="2.748" y="1250.658" x="-1586.682" height="18.461" width="54.412"/><rect ry="5.153" y="1254.572" x="-1582.278" height="10.306" width="22.673"/><ellipse ry="5.325" rx="5.496" cy="1259.897" cx="-1543.116"/></g><g transform="matrix(.88482 .0037 -.00491 .87738 111.503 235.41)" stroke-width="1.135"><rect ry="2.748" y="1250.658" x="-1586.682" height="18.461" width="54.412"/><rect ry="5.153" y="1254.572" x="-1582.278" height="10.306" width="22.673"/><ellipse ry="5.325" rx="5.496" cy="1259.897" cx="-1543.116"/></g><g transform="matrix(.88482 .0037 -.00491 .87738 111.503 460.076)" stroke-width="1.135"><rect width="54.412" height="18.461" x="-1586.682" y="1250.658" ry="2.748"/><rect width="22.673" height="10.306" x="-1582.278" y="1254.572" ry="5.153"/><ellipse cx="-1543.116" cy="1259.897" rx="5.496" ry="5.325"/></g><path d="M-908.625 1411.059v77.3c1.273-.297 2.46-.582 3.78-.877 6.777-8.953 10.615-21.494 10.991-37.787-.376-16.293-4.214-28.835-10.992-37.789-1.322-.295-2.503-.549-3.779-.847z"/><g transform="matrix(-.99961 -.00267 -.0182 .81656 674.648 887.475)" stroke-width="1.107"><path d="M1565.698 681.794h4.49a3.118 3.118 0 013.125 3.125v13.392a3.118 3.118 0 01-3.125 3.125h-9.955a3.118 3.118 0 01-3.125-3.125v-7.684c0-7.175 4.98-8.833 8.59-8.833z"/><rect ry="1.425" y="689.537" x="1558.262" height="7.895" width="20.04"/><rect ry="1.425" y="685.694" x="1573.346" height="8.245" width="84.851"/><path d="M1658.197 686.903v7.036l135.52-1.53v-3.976z"/><path d="M1656.64 680.55c8.26 2.293 14.504 2.548 20.361 6.558l-1.892 7.392c-5.433 2.235-10.522 4.996-17.981 4.13z"/></g><path d="M-908.625 1411.059c-11.709-2.739-21.964-5.5-37.53-5.655-5.753-.057-12.25.236-19.84 1.006-18.615 2.561-28.732 25.188-29.542 43.285.81 18.098 10.927 40.722 29.543 43.284 28.125 2.855 41.327-.868 57.369-4.62zM1402.374 1411.008v77.301c-1.273-.298-2.46-.582-3.78-.877-6.777-8.954-10.615-21.494-10.991-37.787.376-16.293 4.214-28.835 10.992-37.79 1.322-.295 2.503-.548 3.779-.847z"/><g transform="matrix(.99961 -.00267 .0182 .81656 -180.899 887.425)" stroke-width="1.107"><path d="M1565.698 681.794h4.49a3.118 3.118 0 013.125 3.125v13.392a3.118 3.118 0 01-3.125 3.125h-9.955a3.118 3.118 0 01-3.125-3.125v-7.684c0-7.175 4.98-8.833 8.59-8.833z"/><rect width="20.04" height="7.895" x="1558.262" y="689.537" ry="1.425"/><rect width="84.851" height="8.245" x="1573.346" y="685.694" ry="1.425"/><path d="M1658.197 686.903v7.036l135.52-1.53v-3.976z"/><path d="M1656.64 680.55c8.26 2.293 14.504 2.548 20.361 6.558l-1.892 7.392c-5.433 2.235-10.522 4.996-17.981 4.13z"/></g><path d="M1402.374 1411.008c11.709-2.738 21.964-5.499 37.53-5.654 5.753-.057 12.25.235 19.84 1.006 18.615 2.561 28.732 25.188 29.542 43.285-.81 18.098-10.927 40.722-29.543 43.283-28.125 2.856-41.327-.867-57.369-4.619z"/><g transform="matrix(1.31098 -.12517 .18391 .86875 155.874 135.434)" stroke-width=".928"><rect ry="2.748" y="1250.658" x="-1586.682" height="18.461" width="54.412"/><rect ry="5.153" y="1254.572" x="-1582.278" height="10.306" width="22.673"/><ellipse ry="5.325" rx="5.496" cy="1259.897" cx="-1543.116"/></g><g transform="matrix(1.31098 .12517 .18391 -.86875 155.874 2760.915)" stroke-width=".928"><rect width="54.412" height="18.461" x="-1586.682" y="1250.658" ry="2.748"/><rect width="22.673" height="10.306" x="-1582.278" y="1254.572" ry="5.153"/><ellipse cx="-1543.116" cy="1259.897" rx="5.496" ry="5.325"/></g><g transform="matrix(.88482 .0037 -.00491 .87738 3066.974 217.084)" stroke-width="1.135"><rect ry="2.748" y="1250.658" x="-1586.682" height="18.461" width="54.412"/><rect ry="5.153" y="1254.572" x="-1582.278" height="10.306" width="22.673"/><ellipse ry="5.325" rx="5.496" cy="1259.897" cx="-1543.116"/></g><g transform="matrix(.88482 .0037 -.00491 .87738 3237.982 227.772)" stroke-width="1.135"><rect ry="2.748" y="1250.658" x="-1586.682" height="18.461" width="54.412"/><rect ry="5.153" y="1254.572" x="-1582.278" height="10.306" width="22.673"/><ellipse ry="5.325" rx="5.496" cy="1259.897" cx="-1543.116"/></g><g transform="matrix(.88482 -.0037 -.00491 -.87738 3066.974 2674.829)" stroke-width="1.135"><rect width="54.412" height="18.461" x="-1586.682" y="1250.658" ry="2.748"/><rect width="22.673" height="10.306" x="-1582.278" y="1254.572" ry="5.153"/><ellipse cx="-1543.116" cy="1259.897" rx="5.496" ry="5.325"/></g><g transform="matrix(.88482 -.0037 -.00491 -.87738 3237.982 2664.14)" stroke-width="1.135"><rect width="54.412" height="18.461" x="-1586.682" y="1250.658" ry="2.748"/><rect width="22.673" height="10.306" x="-1582.278" y="1254.572" ry="5.153"/><ellipse cx="-1543.116" cy="1259.897" rx="5.496" ry="5.325"/></g><g transform="matrix(.87435 .13574 -.13584 .86682 3605.404 457.527)" stroke-width="1.135"><rect width="54.412" height="18.461" x="-1586.682" y="1250.658" ry="2.748"/><rect width="22.673" height="10.306" x="-1582.278" y="1254.572" ry="5.153"/><ellipse cx="-1543.116" cy="1259.897" rx="5.496" ry="5.325"/></g><g transform="matrix(.87435 -.13574 -.13584 -.86682 3605.404 2429.274)" stroke-width="1.135"><rect ry="2.748" y="1250.658" x="-1586.682" height="18.461" width="54.412"/><rect ry="5.153" y="1254.572" x="-1582.278" height="10.306" width="22.673"/><ellipse ry="5.325" rx="5.496" cy="1259.897" cx="-1543.116"/></g><g transform="rotate(11.296 2165.584 1384.425)"><rect width="92.065" height="45.345" x="2119.551" y="1361.752" ry="18.894"/><rect ry="11.165" y="1374.119" x="2145.659" height="26.795" width="58.399"/></g><g transform="scale(1 -1) rotate(10.855 17368.362 -67.348)"><rect ry="18.894" y="1361.752" x="2119.551" height="45.345" width="92.065"/><rect width="58.399" height="26.795" x="2145.659" y="1374.119" ry="11.165"/></g><g transform="rotate(34.255 2099.968 1559.661)"><rect ry="18.894" y="1361.752" x="2119.551" height="45.345" width="92.065"/><rect width="58.399" height="26.795" x="2145.659" y="1374.119" ry="11.165"/></g><g transform="matrix(.58526 .0037 -.00325 .87738 3240.823 345.258)" stroke-width="1.395"><rect width="54.412" height="18.461" x="-1586.682" y="1250.658" ry="2.748"/><rect width="22.673" height="10.306" x="-1582.278" y="1254.572" ry="5.153"/><ellipse cx="-1543.116" cy="1259.897" rx="5.496" ry="5.325"/></g><circle r="10.649" cy="1404.006" cx="1762.629"/><circle cx="1740.643" cy="1471.337" r="10.649"/><circle r="10.649" cy="1494.009" cx="1763.316"/><circle cx="1726.902" cy="1518.056" r="10.649"/><circle r="14.772" cy="1445.916" cx="1823.776"/><rect width="114.05" height="152.525" x="759.878" y="1372.058" ry="17.751"/><rect ry="16.353" y="1378.229" x="765.708" height="140.517" width="101.419"/><g transform="matrix(.74442 0 0 .94904 -143.92 71.867)" stroke-width="1.19"><rect ry="17.751" y="1372.058" x="759.878" height="152.525" width="114.05"/><rect width="101.419" height="140.517" x="765.708" y="1378.229" ry="16.353"/></g><rect ry="8.259" y="1427.495" x="523.712" height="36.922" width="35.951"/><g><rect rx="69.472" ry="64.128" y="1380.857" x="569.379" height="128.256" width="138.944"/><rect width="102.993" height="96.192" x="585.897" y="1397.375" ry="48.096" rx="51.497"/></g><rect ry="14.575" rx="18.947" y="1377.942" x="210.845" height="135.057" width="192.384"/><g><rect rx="59.84" ry="55.231" y="1390.573" x="252.625" height="110.463" width="119.679"/><rect width="88.713" height="82.847" x="266.853" y="1404.799" ry="41.424" rx="44.357"/></g><g><ellipse ry="73.514" rx="38.131" cy="1442.824" cx="1251.463"/><rect width="172.951" height="108.823" x="1048.396" y="1389.602" ry="0"/><ellipse cx="1214.362" cy="1442.824" rx="49.811" ry="66.644"/><circle cx="1231.538" cy="1446.603" r="30.574"/><ellipse cx="1239.783" cy="1446.603" rx="12.71" ry="15.459"/><circle cx="1194.438" cy="1445.229" r="6.527"/></g><rect ry="14.575" rx="0" y="1380.857" x="983.296" height="128.256" width="75.788"/><g transform="translate(350.76)"><rect width="138.944" height="128.256" x="569.379" y="1380.857" ry="64.128" rx="69.472"/><rect rx="51.497" ry="48.096" y="1397.375" x="585.897" height="96.192" width="102.993"/></g><circle r="9.962" cy="1445.916" cx="1333.222"/><rect transform="rotate(10.031)" ry="4.372" y="1100.934" x="505.049" height="123.398" width="8.745"/><rect width="8.745" height="123.398" x="-265.844" y="1237.294" ry="4.372" transform="scale(-1 1) rotate(10.031)"/><rect width="8.745" height="123.398" x="1.353" y="-1746.643" ry="4.372" transform="scale(1 -1) rotate(10.031)"/><rect transform="rotate(-169.969)" ry="4.372" y="-1610.282" x="-769.54" height="123.398" width="8.745"/><g><rect width="26.795" height="41.223" x="575.748" y="1203.044" ry="4.372"/><rect width="31.604" height="83.82" x="732.396" y="1210.601" ry="4.372"/><rect width="129.195" height="32.978" x="603.367" y="1195.019" ry="0" transform="skewY(1.219) scale(.99977 1)"/></g><g transform="matrix(1 0 0 -1 0 2901.45)"><rect ry="4.372" y="1203.044" x="575.748" height="41.223" width="26.795"/><rect ry="4.372" y="1210.601" x="732.396" height="83.82" width="31.604"/><rect transform="skewY(1.219) scale(.99977 1)" ry="0" y="1195.019" x="603.367" height="32.978" width="129.195"/></g><g transform="translate(-1197.056)"><rect ry="4.372" y="1203.044" x="575.748" height="41.223" width="26.795"/><rect ry="4.372" y="1210.601" x="732.396" height="83.82" width="31.604"/><rect transform="skewY(1.219) scale(.99977 1)" ry="0" y="1195.019" x="603.367" height="32.978" width="129.195"/></g><g transform="matrix(1 0 0 -1 -1197.056 2901.45)"><rect width="26.795" height="41.223" x="575.748" y="1203.044" ry="4.372"/><rect width="31.604" height="83.82" x="732.396" y="1210.601" ry="4.372"/><rect width="129.195" height="32.978" x="603.367" y="1195.019" ry="0" transform="skewY(1.219) scale(.99977 1)"/></g><ellipse cx="-803.058" cy="1444.985" rx="72.387" ry="66.071"/><circle r="11.174" cy="1446.442" cx="-802.086"/><g transform="translate(102.993 -259.427)"><circle cx="-863.966" cy="1706.995" r="13.741"/><g transform="matrix(1.25706 .00032 .0011 1.25351 -2617.98 1072.25)" stroke-width=".797"><rect width="11.52" height="14.575" x="1389.097" y="499.097" ry="0"/><rect width="2.501" height="16.579" x="1400.542" y="498.064" ry=".85" rx="1.137"/><rect rx="1.137" ry=".85" y="498.064" x="1387.506" height="16.579" width="2.501"/><path d="M1403.225 499.098a1.518 7.227 0 00-.182.06v14.334a1.518 7.227 0 00.182.059 1.518 7.227 0 001.52-7.227 1.518 7.227 0 00-1.52-7.226zM1384.766 501.465a2.728 2.728 0 00-2.735 2.732v3.158a2.728 2.728 0 002.735 2.733h2.74v-1.76h-2.196c-.74 0-1.335-.596-1.335-1.336v-2.43c0-.74.595-1.335 1.335-1.335h2.196v-1.762z"/></g><path d="M-866.214 1693.481h5.83v4.615h-5.83zM-866.214 1716.314h5.83v4.615h-5.83z"/></g><g transform="matrix(-1 0 0 1 -1709.954 -259.427)"><circle r="13.741" cy="1706.995" cx="-863.966"/><g transform="matrix(1.25706 .00032 .0011 1.25351 -2617.98 1072.25)" stroke-width=".797"><rect ry="0" y="499.097" x="1389.097" height="14.575" width="11.52"/><rect rx="1.137" ry=".85" y="498.064" x="1400.542" height="16.579" width="2.501"/><rect width="2.501" height="16.579" x="1387.506" y="498.064" ry=".85" rx="1.137"/><path d="M1403.225 499.098a1.518 7.227 0 00-.182.06v14.334a1.518 7.227 0 00.182.059 1.518 7.227 0 001.52-7.227 1.518 7.227 0 00-1.52-7.226zM1384.766 501.465a2.728 2.728 0 00-2.735 2.732v3.158a2.728 2.728 0 002.735 2.733h2.74v-1.76h-2.196c-.74 0-1.335-.596-1.335-1.336v-2.43c0-.74.595-1.335 1.335-1.335h2.196v-1.762z"/></g><path d="M-866.214 1693.481h5.83v4.615h-5.83zM-866.214 1716.314h5.83v4.615h-5.83z"/></g><g transform="translate(2102.558 -260.65)"><circle cx="-863.966" cy="1706.995" r="13.741"/><g transform="matrix(1.25706 .00032 .0011 1.25351 -2617.98 1072.25)" stroke-width=".797"><rect width="11.52" height="14.575" x="1389.097" y="499.097" ry="0"/><rect width="2.501" height="16.579" x="1400.542" y="498.064" ry=".85" rx="1.137"/><rect rx="1.137" ry=".85" y="498.064" x="1387.506" height="16.579" width="2.501"/><path d="M1403.225 499.098a1.518 7.227 0 00-.182.06v14.334a1.518 7.227 0 00.182.059 1.518 7.227 0 001.52-7.227 1.518 7.227 0 00-1.52-7.226zM1384.766 501.465a2.728 2.728 0 00-2.735 2.732v3.158a2.728 2.728 0 002.735 2.733h2.74v-1.76h-2.196c-.74 0-1.335-.596-1.335-1.336v-2.43c0-.74.595-1.335 1.335-1.335h2.196v-1.762z"/></g><path d="M-866.214 1693.481h5.83v4.615h-5.83zM-866.214 1716.314h5.83v4.615h-5.83z"/></g><g transform="translate(2143.852 -261.135)"><circle cx="-863.966" cy="1706.995" r="13.741"/><g transform="matrix(1.25706 .00032 .0011 1.25351 -2617.98 1072.25)" stroke-width=".797"><rect width="11.52" height="14.575" x="1389.097" y="499.097" ry="0"/><rect width="2.501" height="16.579" x="1400.542" y="498.064" ry=".85" rx="1.137"/><rect rx="1.137" ry=".85" y="498.064" x="1387.506" height="16.579" width="2.501"/><path d="M1403.225 499.098a1.518 7.227 0 00-.182.06v14.334a1.518 7.227 0 00.182.059 1.518 7.227 0 001.52-7.227 1.518 7.227 0 00-1.52-7.226zM1384.766 501.465a2.728 2.728 0 00-2.735 2.732v3.158a2.728 2.728 0 002.735 2.733h2.74v-1.76h-2.196c-.74 0-1.335-.596-1.335-1.336v-2.43c0-.74.595-1.335 1.335-1.335h2.196v-1.762z"/></g><path d="M-866.214 1693.481h5.83v4.615h-5.83zM-866.214 1716.314h5.83v4.615h-5.83z"/></g></g></svg>