<svg width="1000" height="131.468" version="1.0" xmlns="http://www.w3.org/2000/svg"><g transform="matrix(2.48466 0 0 2.48466 -84.41 -1244.83)" stroke="#000"><path d="M103.419 546.577v-38.438c-22.222 3.134-44.576 7.2-62.835 12.008-8.225 3.325-8.824 11.45 0 15.354 18.695 4.151 41.106 8.01 62.835 11.076zM206.632 501.223a774.17 774.17 0 00-6.8.026c-6.307.048-12.91.172-19.91.407-19.118-.029-47.699 2.42-76.503 6.483v38.438c28.276 3.99 55.37 6.597 71.33 6.364 25.363 1.465 49.903.586 74.292-.708.245-.02.492-.033.737-.053l28.282-17.913-.014-.184h11.819v-13.07h-12.64l-.07-1.01-27.502-17.69c-13.586-.566-27.419-1.069-43.02-1.09z" fill-rule="evenodd" stroke-width=".432"/><path d="M218.108 516.156l24.752.5c2.805 1.718 5.439 3.655 7.47 6.365l.146 6.49c-2.243 2.136-4.387 4.3-7.763 6.115L218.401 537z" fill-rule="evenodd" stroke-width=".46"/><path d="M133.954 521.177l.25 13.403 20.253 18.201 10.27-.019 4.65-6.113 9.31-.24c1.155-6.025 2.682-7.384 5.836-8.94l14.753-.134c4.78.603 5.28-.177 6.763 1.057l3.36 5.928 4.243.169 3.537-3.726 2.121 1.863 1.592-1.355-1.592-2.37 7.25-5.758v-9.822l-6.365-7.282 1.59-2.202-1.237-1.185-3.183 1.693-4.066-4.064h-4.42l-3.39 4.338c-.613 1.494-3.693 2.653-6.923 2.266l-14.783-.232c-5.37-1.995-5.883-5.7-7.44-8.912l-7.602-.07-5.181-5.155c-6.749-.018-7.294.207-10.52.46z" fill-rule="evenodd" stroke-width=".417"/><path d="M135.106 519.757l5.626-5.452 35.383-.242 5.25-12.6h22.756l5.001 16.72v18.415l-3.5 16.962-25.006-.242-4.251-12.6-34.633.363-6.501-5.815c7.215-1.504 8.287-12.809-.125-15.509z" fill-rule="evenodd" stroke-width=".419"/><path stroke-width=".379" stroke-linecap="round" stroke-linejoin="bevel" d="M178.813 521.669h25.983v9.894h-25.983z"/><g transform="matrix(-.42567 0 0 .42567 129.075 437.324)"><ellipse transform="matrix(.45275 0 0 .27172 134.067 132.324)" cx="153.748" cy="289.226" rx="13.657" ry="21.293" stroke-width="2.495" stroke-linecap="round" stroke-linejoin="bevel"/><path d="M201.177 208.275l-72.531 4.75v2.032l72.531-.938zM201.47 207.394l.074 7.423 16.977-.366-.019-7.3z" fill-rule="evenodd"/><path d="M188.404 184.084a9.251 7.636 0 01-.024.552" stroke-width="15.157" stroke-linecap="round" stroke-linejoin="bevel"/><path stroke-width=".5" stroke-linecap="round" stroke-linejoin="bevel" d="M140.679 208.313h8.223v2.35h-8.223z"/></g><ellipse transform="translate(9.081 383.762) scale(.42567)" cx="95.597" cy="335.776" rx="2.79" ry="2.643" stroke-width=".875" stroke-linecap="round" stroke-linejoin="bevel"/><ellipse transform="translate(9.206 384.137) scale(.42567)" cx="511.759" cy="334.454" rx="10.72" ry="13.363" stroke-width=".875" stroke-linecap="round" stroke-linejoin="bevel"/><ellipse transform="translate(9.206 383.762) scale(.42567)" cx="506.62" cy="335.629" rx="5.874" ry="5.727" stroke-width=".875" stroke-linecap="round" stroke-linejoin="bevel"/><path d="M207.108 515.69h8.126l9.5 7.127v6.5l-9.375 7.501h-8.251z" fill-rule="evenodd" stroke-width=".426"/><circle transform="translate(9.081 383.762) scale(.42567)" cx="495.312" cy="336.51" r="2.203" stroke-width=".875" stroke-linecap="round" stroke-linejoin="bevel"/><path d="M221.985 523.817l.25 5.5-5.876 4.501-8.126.125-.25-14.877 6.75.125z" fill-rule="evenodd" stroke-width=".426"/><path stroke-width=".372" stroke-linecap="round" stroke-linejoin="bevel" d="M208.983 522.066h7.001v9.376h-7.001z"/><path d="M209.748 523.192h2.86l1.625 1.375v4.156l-1.527 1.595h-2.973zM217.859 521.629l8.126-8.689.375.25-7.813 8.876zM264.85 544.74l8.126 8.689.375-.25-7.814-8.876zM204.638 518.128c-1.543.03-2.966 1.279-1.53 4.123l.106 4.67-.093 3.67c-3.062 6.07 6.891 4.893 3.26.067l.079-3.219h.027l-.014-.691.027-1.344h-.067l-.08-3.22c1.93-2.563.033-4.09-1.715-4.056z" fill-rule="evenodd" stroke-width=".426"/><path d="M211.547 508.683c-1.622 0-2.94 1.3-2.94 2.887 0 .26.04.505.106.745h5.667a2.78 2.78 0 00.106-.745c0-1.588-1.318-2.887-2.94-2.887z" stroke-width=".372" stroke-linecap="round" stroke-linejoin="bevel"/><path d="M359.638 511.577l14.14 15.197-14.432 16.272c23.81-2.577 47.187-5.88 69.69-10.695 9.253-1.442 9.917-7.956 0-10.118-22.603-4.223-45.765-7.73-69.398-10.656z" fill-rule="evenodd" stroke-width=".432"/><path d="M327.045 507.995l17.729 19.304-17.13 18.766c10.627-.91 21.212-1.883 31.702-3.019l14.433-16.272-14.141-15.197c-10.757-1.331-21.642-2.496-32.593-3.582z" fill-rule="evenodd" stroke-width=".432"/><path d="M249.653 502.312l26.986 17.449 1.42 14.506-28.281 17.913c25.942-2.144 52.051-3.903 77.865-6.115l17.13-18.766-17.728-19.304a1545.473 1545.473 0 00-76.155-5.643c-.403-.017-.833-.023-1.237-.04z" fill-rule="evenodd" stroke-width=".432"/><g transform="translate(28.174 383.408) scale(.42567)"><ellipse transform="matrix(.97382 0 0 1 -123.94 1.175)" cx="712.351" cy="334.161" rx="28.048" ry="26.285" stroke-width=".8" stroke-linecap="round" stroke-linejoin="bevel"/><path stroke-width=".8" stroke-linecap="round" stroke-linejoin="bevel" d="M542.231 355.327h10.384v10.384h-10.384z"/><path d="M589.781 352.625h-51.218c.765 1.346 1.617 2.336 2.625 2.5 11.589 3.166 24.302 2.97 36.968 2.906l11.625-5zM581.5 319.406h-24.938v33.219H581.5zM581.5 319.406v33.219h8.281l.813-33.219z" fill-rule="evenodd"/><path d="M556.563 352.625v-33.219h-18.75c-3.616 9.11-2.928 26.756.75 33.219z" fill-rule="evenodd"/><path stroke-width=".8" stroke-linecap="round" stroke-linejoin="bevel" d="M541.608 304.447h10.384v10.384h-10.384z"/><path d="M577.75 311.938c-5.622-.012-21.144.303-36.563 2.468-1.432.867-2.488 2.766-3.375 5h52.782l.031-1.656z" fill-rule="evenodd"/><circle cx="545.762" cy="336.013" r="2.907" stroke-width=".8" stroke-linecap="round" stroke-linejoin="bevel"/><g transform="translate(-.208 1.142)" stroke-linecap="round" stroke-linejoin="bevel"><path stroke-width=".918" d="M596.842 320.783h36.594v2.746h-36.594z"/><ellipse transform="translate(-.66 .22)" cx="588.78" cy="321.899" rx="1.689" ry="2.129" stroke-width=".8"/><path d="M588.594 320.219a.67.67 0 00-.282.062c-.009.004-.022-.004-.03 0-.473.228-.813.962-.813 1.813 0 .85.34 1.553.812 1.781v.094h8.782v-3.688h-8.188a.67.67 0 00-.281-.062z" stroke-width=".8"/></g><g transform="translate(-.216 8.08)" stroke-linecap="round" stroke-linejoin="bevel"><path stroke-width=".918" d="M596.842 320.783h36.594v2.746h-36.594z"/><ellipse transform="translate(-.66 .22)" cx="588.78" cy="321.899" rx="1.689" ry="2.129" stroke-width=".8"/><path d="M588.594 320.219a.67.67 0 00-.282.062c-.009.004-.022-.004-.03 0-.473.228-.813.962-.813 1.813 0 .85.34 1.553.812 1.781v.094h8.782v-3.688h-8.188a.67.67 0 00-.281-.062z" stroke-width=".8"/></g><g transform="translate(-.212 18.732)" stroke-linecap="round" stroke-linejoin="bevel"><path stroke-width=".918" d="M596.842 320.783h36.594v2.746h-36.594z"/><ellipse transform="translate(-.66 .22)" cx="588.78" cy="321.899" rx="1.689" ry="2.129" stroke-width=".8"/><path d="M588.594 320.219a.67.67 0 00-.282.062c-.009.004-.022-.004-.03 0-.473.228-.813.962-.813 1.813 0 .85.34 1.553.812 1.781v.094h8.782v-3.688h-8.188a.67.67 0 00-.281-.062z" stroke-width=".8"/></g><g transform="translate(-.22 25.67)" stroke-linecap="round" stroke-linejoin="bevel"><path stroke-width=".918" d="M596.842 320.783h36.594v2.746h-36.594z"/><ellipse transform="translate(-.66 .22)" cx="588.78" cy="321.899" rx="1.689" ry="2.129" stroke-width=".8"/><path d="M588.594 320.219a.67.67 0 00-.282.062c-.009.004-.022-.004-.03 0-.473.228-.813.962-.813 1.813 0 .85.34 1.553.812 1.781v.094h8.782v-3.688h-8.188a.67.67 0 00-.281-.062z" stroke-width=".8"/></g></g><g transform="translate(70.365 383.962) scale(.42567)"><ellipse transform="matrix(.97382 0 0 1 -123.94 1.175)" cx="712.351" cy="334.161" rx="28.048" ry="26.285" stroke-width=".8" stroke-linecap="round" stroke-linejoin="bevel"/><path stroke-width=".8" stroke-linecap="round" stroke-linejoin="bevel" d="M542.231 355.327h10.384v10.384h-10.384z"/><path d="M589.781 352.625h-51.218c.765 1.346 1.617 2.336 2.625 2.5 11.589 3.166 24.302 2.97 36.968 2.906l11.625-5zM581.5 319.406h-24.938v33.219H581.5zM581.5 319.406v33.219h8.281l.813-33.219z" fill-rule="evenodd"/><path d="M556.563 352.625v-33.219h-18.75c-3.616 9.11-2.928 26.756.75 33.219z" fill-rule="evenodd"/><path stroke-width=".8" stroke-linecap="round" stroke-linejoin="bevel" d="M541.608 304.447h10.384v10.384h-10.384z"/><path d="M577.75 311.938c-5.622-.012-21.144.303-36.563 2.468-1.432.867-2.488 2.766-3.375 5h52.782l.031-1.656z" fill-rule="evenodd"/><circle cx="545.762" cy="336.013" r="2.907" stroke-width=".8" stroke-linecap="round" stroke-linejoin="bevel"/><g transform="translate(-.208 1.142)" stroke-linecap="round" stroke-linejoin="bevel"><path stroke-width=".918" d="M596.842 320.783h36.594v2.746h-36.594z"/><ellipse transform="translate(-.66 .22)" cx="588.78" cy="321.899" rx="1.689" ry="2.129" stroke-width=".8"/><path d="M588.594 320.219a.67.67 0 00-.282.062c-.009.004-.022-.004-.03 0-.473.228-.813.962-.813 1.813 0 .85.34 1.553.812 1.781v.094h8.782v-3.688h-8.188a.67.67 0 00-.281-.062z" stroke-width=".8"/></g><g transform="translate(-.216 8.08)" stroke-linecap="round" stroke-linejoin="bevel"><path stroke-width=".918" d="M596.842 320.783h36.594v2.746h-36.594z"/><ellipse transform="translate(-.66 .22)" cx="588.78" cy="321.899" rx="1.689" ry="2.129" stroke-width=".8"/><path d="M588.594 320.219a.67.67 0 00-.282.062c-.009.004-.022-.004-.03 0-.473.228-.813.962-.813 1.813 0 .85.34 1.553.812 1.781v.094h8.782v-3.688h-8.188a.67.67 0 00-.281-.062z" stroke-width=".8"/></g><g transform="translate(-.212 18.732)" stroke-linecap="round" stroke-linejoin="bevel"><path stroke-width=".918" d="M596.842 320.783h36.594v2.746h-36.594z"/><ellipse transform="translate(-.66 .22)" cx="588.78" cy="321.899" rx="1.689" ry="2.129" stroke-width=".8"/><path d="M588.594 320.219a.67.67 0 00-.282.062c-.009.004-.022-.004-.03 0-.473.228-.813.962-.813 1.813 0 .85.34 1.553.812 1.781v.094h8.782v-3.688h-8.188a.67.67 0 00-.281-.062z" stroke-width=".8"/></g><g transform="translate(-.22 25.67)" stroke-linecap="round" stroke-linejoin="bevel"><path stroke-width=".918" d="M596.842 320.783h36.594v2.746h-36.594z"/><ellipse transform="translate(-.66 .22)" cx="588.78" cy="321.899" rx="1.689" ry="2.129" stroke-width=".8"/><path d="M588.594 320.219a.67.67 0 00-.282.062c-.009.004-.022-.004-.03 0-.473.228-.813.962-.813 1.813 0 .85.34 1.553.812 1.781v.094h8.782v-3.688h-8.188a.67.67 0 00-.281-.062z" stroke-width=".8"/></g></g><g transform="matrix(0 .29955 -.29955 0 301.661 430.496)" stroke-width=".8" stroke-linecap="round" stroke-linejoin="bevel"><ellipse transform="translate(-.587 .367)" cx="271.225" cy="300.533" rx="3.965" ry="3.818"/><path d="M271.744 285.634h-2.656v12.094c.426.358.953.538 1.469.531.434-.006.836-.227 1.187-.469zM271.819 316.464h-2.656V304.37a2.244 2.244 0 011.468-.531c.435.006.836.227 1.188.469z"/></g><path stroke-width=".372" stroke-linecap="round" stroke-linejoin="bevel" d="M361.264 525.067h2.75v2h-2.75zM414.646 521.691h3.25v1.25h-3.25zM414.771 529.317h3.25v1.25h-3.25zM422.897 525.567h3.25v1.25h-3.25z"/><path d="M431.303 522.817c2.44 2.862 2.325 5.906.242 9.09" fill-rule="evenodd" stroke-width=".413"/><path stroke-width=".372" stroke-linecap="round" stroke-linejoin="bevel" d="M373.391 514.94h3v1.5h-3zM373.266 535.568h3v1.5h-3z"/><g transform="translate(31.22 383.762) scale(.42567)" stroke-width=".875" stroke-linecap="round" stroke-linejoin="bevel"><path d="M816.171 321.091h12.335v7.049h-12.335z"/><ellipse transform="matrix(1.04667 0 0 1.12477 -37.507 -39.473)" cx="819.402" cy="323.441" rx="2.35" ry="2.056"/></g><g transform="translate(30.97 389.638) scale(.42567)" stroke-width=".875" stroke-linecap="round" stroke-linejoin="bevel"><path d="M816.171 321.091h12.335v7.049h-12.335z"/><ellipse transform="matrix(1.04667 0 0 1.12477 -37.507 -39.473)" cx="819.402" cy="323.441" rx="2.35" ry="2.056"/></g><g transform="translate(31.345 395.513) scale(.42567)" stroke-width=".875" stroke-linecap="round" stroke-linejoin="bevel"><path d="M816.171 321.091h12.335v7.049h-12.335z"/><ellipse transform="matrix(1.04667 0 0 1.12477 -37.507 -39.473)" cx="819.402" cy="323.441" rx="2.35" ry="2.056"/></g><ellipse transform="translate(31.22 383.762) scale(.42567)" cx="833.352" cy="331.077" rx="2.203" ry="2.35" stroke-width=".875" stroke-linecap="round" stroke-linejoin="bevel"/><ellipse transform="translate(31.22 383.762) scale(.42567)" cx="829.094" cy="360.593" rx="1.175" ry="1.028" stroke-width=".875" stroke-linecap="round" stroke-linejoin="bevel"/><ellipse transform="translate(31.22 383.762) scale(.42567)" cx="833.206" cy="360.299" rx="1.175" ry="1.028" stroke-width=".875" stroke-linecap="round" stroke-linejoin="bevel"/><path stroke-width=".372" stroke-linecap="round" stroke-linejoin="bevel" d="M358.389 519.816h1.75v.875h-1.75zM211.922 543.51c-1.622 0-2.94-1.299-2.94-2.886 0-.26.04-.505.106-.745h5.667c.066.24.107.485.107.745 0 1.587-1.319 2.887-2.94 2.887z"/><g transform="matrix(0 -.29955 -.29955 0 302.036 621.697)" stroke-width=".8" stroke-linecap="round" stroke-linejoin="bevel"><ellipse transform="translate(-.587 .367)" cx="271.225" cy="300.533" rx="3.965" ry="3.818"/><path d="M271.744 285.634h-2.656v12.094c.426.358.953.538 1.469.531.434-.006.836-.227 1.187-.469zM271.819 316.464h-2.656V304.37a2.244 2.244 0 011.468-.531c.435.006.836.227 1.188.469z"/></g><g transform="matrix(-.42567 0 0 .42567 351.315 384.434)"><ellipse transform="matrix(.97382 0 0 1 -123.94 1.175)" cx="712.351" cy="334.161" rx="28.048" ry="26.285" stroke-width=".8" stroke-linecap="round" stroke-linejoin="bevel"/><path stroke-width=".8" stroke-linecap="round" stroke-linejoin="bevel" d="M542.231 355.327h10.384v10.384h-10.384z"/><path d="M589.781 352.625h-51.218c.765 1.346 1.617 2.336 2.625 2.5 11.589 3.166 24.302 2.97 36.968 2.906l11.625-5zM581.5 319.406h-24.938v33.219H581.5zM581.5 319.406v33.219h8.281l.813-33.219z" fill-rule="evenodd"/><path d="M556.563 352.625v-33.219h-18.75c-3.616 9.11-2.928 26.756.75 33.219z" fill-rule="evenodd"/><path stroke-width=".8" stroke-linecap="round" stroke-linejoin="bevel" d="M541.608 304.447h10.384v10.384h-10.384z"/><path d="M577.75 311.938c-5.622-.012-21.144.303-36.563 2.468-1.432.867-2.488 2.766-3.375 5h52.782l.031-1.656z" fill-rule="evenodd"/><circle cx="545.762" cy="336.013" r="2.907" stroke-width=".8" stroke-linecap="round" stroke-linejoin="bevel"/><g transform="translate(-.208 1.142)" stroke-linecap="round" stroke-linejoin="bevel"><path stroke-width=".918" d="M596.842 320.783h36.594v2.746h-36.594z"/><ellipse transform="translate(-.66 .22)" cx="588.78" cy="321.899" rx="1.689" ry="2.129" stroke-width=".8"/><path d="M588.594 320.219a.67.67 0 00-.282.062c-.009.004-.022-.004-.03 0-.473.228-.813.962-.813 1.813 0 .85.34 1.553.812 1.781v.094h8.782v-3.688h-8.188a.67.67 0 00-.281-.062z" stroke-width=".8"/></g><g transform="translate(-.216 8.08)" stroke-linecap="round" stroke-linejoin="bevel"><path stroke-width=".918" d="M596.842 320.783h36.594v2.746h-36.594z"/><ellipse transform="translate(-.66 .22)" cx="588.78" cy="321.899" rx="1.689" ry="2.129" stroke-width=".8"/><path d="M588.594 320.219a.67.67 0 00-.282.062c-.009.004-.022-.004-.03 0-.473.228-.813.962-.813 1.813 0 .85.34 1.553.812 1.781v.094h8.782v-3.688h-8.188a.67.67 0 00-.281-.062z" stroke-width=".8"/></g><g transform="translate(-.212 18.732)" stroke-linecap="round" stroke-linejoin="bevel"><path stroke-width=".918" d="M596.842 320.783h36.594v2.746h-36.594z"/><ellipse transform="translate(-.66 .22)" cx="588.78" cy="321.899" rx="1.689" ry="2.129" stroke-width=".8"/><path d="M588.594 320.219a.67.67 0 00-.282.062c-.009.004-.022-.004-.03 0-.473.228-.813.962-.813 1.813 0 .85.34 1.553.812 1.781v.094h8.782v-3.688h-8.188a.67.67 0 00-.281-.062z" stroke-width=".8"/></g><g transform="translate(-.22 25.67)" stroke-linecap="round" stroke-linejoin="bevel"><path stroke-width=".918" d="M596.842 320.783h36.594v2.746h-36.594z"/><ellipse transform="translate(-.66 .22)" cx="588.78" cy="321.899" rx="1.689" ry="2.129" stroke-width=".8"/><path d="M588.594 320.219a.67.67 0 00-.282.062c-.009.004-.022-.004-.03 0-.473.228-.813.962-.813 1.813 0 .85.34 1.553.812 1.781v.094h8.782v-3.688h-8.188a.67.67 0 00-.281-.062z" stroke-width=".8"/></g></g><path d="M236.87 511.448l.838-.208 2.123.044.352.252c-.793.57-1.733.461-2.92.111z" fill-rule="evenodd" stroke-width=".33685"/><path d="M237.694 508.575l2.117-.017.027-.023c.282.955.186 1.858 0 2.748l-2.114-.02.007-.01v-2.655z" fill-rule="evenodd" stroke-width=".33685"/><path d="M237.646 508.575l.07.023v2.655l-.015.01-.015.004-.69.232-.055-.016c-.703-.36-.773-2.827 0-3.124l.654.216zM239.768 511.259c.231-.919.307-1.956 0-2.75l.412-.298c.803 1.215.731 2.355-.015 3.3h-.008l-.351-.252z" fill-rule="evenodd" stroke-width=".33685"/><path d="M240.206 508.232v.004l-.447.32-2.124.045-.852-.193.55-.268c1.14-.35 1.931-.348 2.873.092z" fill-rule="evenodd" stroke-width=".33685"/><path stroke-width=".26948" stroke-linecap="round" stroke-linejoin="bevel" d="M239.756 508.992h-1.406v1.588h1.406z"/><g transform="matrix(.04109 0 0 .09023 215.09 480.418)" stroke-linecap="round" stroke-linejoin="bevel"><path stroke-width=".918" d="M596.842 320.783h36.594v2.746h-36.594z"/><ellipse transform="translate(-.66 .22)" cx="588.78" cy="321.899" rx="1.689" ry="2.129" stroke-width=".8"/><path d="M588.594 320.219a.67.67 0 00-.282.062c-.009.004-.022-.004-.03 0-.473.228-.813.962-.813 1.813 0 .85.34 1.553.812 1.781v.094h8.782v-3.688h-8.188a.67.67 0 00-.281-.062z" stroke-width=".8"/></g><g transform="matrix(.04109 0 0 .09023 215.103 481.052)" stroke-linecap="round" stroke-linejoin="bevel"><path stroke-width=".918" d="M596.842 320.783h36.594v2.746h-36.594z"/><ellipse transform="translate(-.66 .22)" cx="588.78" cy="321.899" rx="1.689" ry="2.129" stroke-width=".8"/><path d="M588.594 320.219a.67.67 0 00-.282.062c-.009.004-.022-.004-.03 0-.473.228-.813.962-.813 1.813 0 .85.34 1.553.812 1.781v.094h8.782v-3.688h-8.188a.67.67 0 00-.281-.062z" stroke-width=".8"/></g><path d="M237.934 543.138l.837-.209 2.124.044.351.252c-.793.57-1.733.461-2.92.111z" fill-rule="evenodd" stroke-width=".33685"/><path d="M238.758 540.264l2.117-.017.026-.023c.282.956.187 1.858 0 2.748l-2.114-.02.008-.01v-2.655z" fill-rule="evenodd" stroke-width=".33685"/><path d="M238.709 540.264l.07.023v2.655l-.015.01-.015.004-.69.232-.055-.016c-.703-.36-.772-2.827 0-3.124l.655.216zM240.831 542.948c.231-.919.307-1.956 0-2.75l.413-.298c.803 1.215.73 2.355-.016 3.3h-.007l-.352-.252z" fill-rule="evenodd" stroke-width=".33685"/><path d="M241.269 539.921v.004l-.447.321-2.124.044-.852-.193.55-.267c1.14-.351 1.931-.35 2.873.091z" fill-rule="evenodd" stroke-width=".33685"/><path stroke-width=".26948" stroke-linecap="round" stroke-linejoin="bevel" d="M240.819 540.681h-1.405v1.588h1.405z"/><g transform="matrix(.04109 0 0 .09023 216.153 512.107)" stroke-linecap="round" stroke-linejoin="bevel"><path stroke-width=".918" d="M596.842 320.783h36.594v2.746h-36.594z"/><ellipse transform="translate(-.66 .22)" cx="588.78" cy="321.899" rx="1.689" ry="2.129" stroke-width=".8"/><path d="M588.594 320.219a.67.67 0 00-.282.062c-.009.004-.022-.004-.03 0-.473.228-.813.962-.813 1.813 0 .85.34 1.553.812 1.781v.094h8.782v-3.688h-8.188a.67.67 0 00-.281-.062z" stroke-width=".8"/></g><g transform="matrix(.04109 0 0 .09023 216.167 512.74)" stroke-linecap="round" stroke-linejoin="bevel"><path stroke-width=".918" d="M596.842 320.783h36.594v2.746h-36.594z"/><ellipse transform="translate(-.66 .22)" cx="588.78" cy="321.899" rx="1.689" ry="2.129" stroke-width=".8"/><path d="M588.594 320.219a.67.67 0 00-.282.062c-.009.004-.022-.004-.03 0-.473.228-.813.962-.813 1.813 0 .85.34 1.553.812 1.781v.094h8.782v-3.688h-8.188a.67.67 0 00-.281-.062z" stroke-width=".8"/></g><path d="M211.701 502.856l.59.294 3.402-.024.444-.318-3.847-.203zM212.242 506.55l3.36.02.042.03v-3.473l-3.356.025.013.013v3.355z" fill-rule="evenodd" stroke-width=".42567"/><path d="M212.242 506.55l.059-.03v-3.355l-.013-.013-.012-.004-.576-.294-.046.021c-1.014.363-.985 3.499 0 3.947l.546-.272z" fill-rule="evenodd" stroke-width=".42567"/><path stroke-width=".340536" stroke-linecap="round" stroke-linejoin="bevel" d="M215.617 506.007h-1.776v-.63h1.776z"/><path d="M215.612 503.158v3.475l.522.377-.02-4.17h-.01l-.443.318z" fill-rule="evenodd" stroke-width=".42567"/><path d="M216.166 506.983v-.005l-.565-.406-3.403-.024-.545.275.57.338z" fill-rule="evenodd" stroke-width=".42567"/><g transform="matrix(.09078 0 0 -.11402 161.594 542.444)" stroke-linecap="round" stroke-linejoin="bevel"><path stroke-width=".918" d="M596.842 320.783h36.594v2.746h-36.594z"/><ellipse transform="translate(-.66 .22)" cx="588.78" cy="321.899" rx="1.689" ry="2.129" stroke-width=".8"/><path d="M588.594 320.219a.67.67 0 00-.282.062c-.009.004-.022-.004-.03 0-.473.228-.813.962-.813 1.813 0 .85.34 1.553.812 1.781v.094h8.782v-3.688h-8.188a.67.67 0 00-.281-.062z" stroke-width=".8"/></g><path stroke-width=".340536" stroke-linecap="round" stroke-linejoin="bevel" d="M215.597 504.429h-1.776v-.631h1.776z"/><g transform="matrix(.09078 0 0 -.11402 161.598 540.808)" stroke-linecap="round" stroke-linejoin="bevel"><path stroke-width=".918" d="M596.842 320.783h36.594v2.746h-36.594z"/><ellipse transform="translate(-.66 .22)" cx="588.78" cy="321.899" rx="1.689" ry="2.129" stroke-width=".8"/><path d="M588.594 320.219a.67.67 0 00-.282.062c-.009.004-.022-.004-.03 0-.473.228-.813.962-.813 1.813 0 .85.34 1.553.812 1.781v.094h8.782v-3.688h-8.188a.67.67 0 00-.281-.062z" stroke-width=".8"/></g><path d="M224.768 503.23l.589.294 3.402-.024.444-.318-3.846-.203zM225.309 506.924l3.36.02.041.03v-3.473l-3.355.025.013.013v3.355z" fill-rule="evenodd" stroke-width=".42567"/><path d="M225.309 506.924l.059-.03v-3.355l-.013-.013-.013-.004-.575-.294-.046.021c-1.015.363-.985 3.499 0 3.948l.546-.273z" fill-rule="evenodd" stroke-width=".42567"/><path stroke-width=".340536" stroke-linecap="round" stroke-linejoin="bevel" d="M228.683 506.381h-1.775v-.63h1.775z"/><path d="M228.679 503.532v3.475l.521.377-.019-4.17h-.01l-.444.318z" fill-rule="evenodd" stroke-width=".42567"/><path d="M229.232 507.357v-.005l-.564-.406-3.403-.024-.545.275.57.338z" fill-rule="evenodd" stroke-width=".42567"/><g transform="matrix(.09078 0 0 -.11402 174.661 542.818)" stroke-linecap="round" stroke-linejoin="bevel"><path stroke-width=".918" d="M596.842 320.783h36.594v2.746h-36.594z"/><ellipse transform="translate(-.66 .22)" cx="588.78" cy="321.899" rx="1.689" ry="2.129" stroke-width=".8"/><path d="M588.594 320.219a.67.67 0 00-.282.062c-.009.004-.022-.004-.03 0-.473.228-.813.962-.813 1.813 0 .85.34 1.553.812 1.781v.094h8.782v-3.688h-8.188a.67.67 0 00-.281-.062z" stroke-width=".8"/></g><path stroke-width=".340536" stroke-linecap="round" stroke-linejoin="bevel" d="M228.664 504.803h-1.776v-.631h1.776z"/><g transform="matrix(.09078 0 0 -.11402 174.665 541.182)" stroke-linecap="round" stroke-linejoin="bevel"><path stroke-width=".918" d="M596.842 320.783h36.594v2.746h-36.594z"/><ellipse transform="translate(-.66 .22)" cx="588.78" cy="321.899" rx="1.689" ry="2.129" stroke-width=".8"/><path d="M588.594 320.219a.67.67 0 00-.282.062c-.009.004-.022-.004-.03 0-.473.228-.813.962-.813 1.813 0 .85.34 1.553.812 1.781v.094h8.782v-3.688h-8.188a.67.67 0 00-.281-.062z" stroke-width=".8"/></g><g><path d="M211.5 549.865l.588-.295 3.403.024.444.319-3.847.203z" fill-rule="evenodd" stroke-width=".42567"/><path d="M212.04 546.171l3.36-.021.042-.03v3.474l-3.355-.026.012-.012V546.2z" fill-rule="evenodd" stroke-width=".42567"/><path d="M212.04 546.171l.06.03v3.355l-.013.012-.013.005-.575.294-.046-.021c-1.015-.363-.985-3.5 0-3.948l.545.273z" fill-rule="evenodd" stroke-width=".42567"/><path stroke-width=".340536" stroke-linecap="round" stroke-linejoin="bevel" d="M215.415 546.713h-1.776v.632h1.776z"/><path d="M215.41 549.562v-3.475l.522-.376-.02 4.17h-.009l-.444-.319z" fill-rule="evenodd" stroke-width=".42567"/><path d="M215.964 545.738v.005l-.565.405-3.402.024-.546-.275.57-.338z" fill-rule="evenodd" stroke-width=".42567"/><g transform="matrix(.09078 0 0 .11402 161.393 510.277)" stroke-linecap="round" stroke-linejoin="bevel"><path stroke-width=".918" d="M596.842 320.783h36.594v2.746h-36.594z"/><ellipse transform="translate(-.66 .22)" cx="588.78" cy="321.899" rx="1.689" ry="2.129" stroke-width=".8"/><path d="M588.594 320.219a.67.67 0 00-.282.062c-.009.004-.022-.004-.03 0-.473.228-.813.962-.813 1.813 0 .85.34 1.553.812 1.781v.094h8.782v-3.688h-8.188a.67.67 0 00-.281-.062z" stroke-width=".8"/></g><path stroke-width=".340536" stroke-linecap="round" stroke-linejoin="bevel" d="M215.396 548.292h-1.776v.63h1.776z"/><g transform="matrix(.09078 0 0 .11402 161.396 511.913)" stroke-linecap="round" stroke-linejoin="bevel"><path stroke-width=".918" d="M596.842 320.783h36.594v2.746h-36.594z"/><ellipse transform="translate(-.66 .22)" cx="588.78" cy="321.899" rx="1.689" ry="2.129" stroke-width=".8"/><path d="M588.594 320.219a.67.67 0 00-.282.062c-.009.004-.022-.004-.03 0-.473.228-.813.962-.813 1.813 0 .85.34 1.553.812 1.781v.094h8.782v-3.688h-8.188a.67.67 0 00-.281-.062z" stroke-width=".8"/></g></g><g><path d="M224.566 549.74l.589-.294 3.403.024.444.319-3.847.203zM225.107 546.047l3.36-.021.042-.03v3.473l-3.356-.025.013-.012v-3.356z" fill-rule="evenodd" stroke-width=".42567"/><path d="M225.107 546.047l.059.03v3.355l-.013.012-.012.005-.576.294-.046-.021c-1.015-.364-.985-3.5 0-3.948l.546.273z" fill-rule="evenodd" stroke-width=".42567"/><path stroke-width=".340536" stroke-linecap="round" stroke-linejoin="bevel" d="M228.482 546.59h-1.776v.63h1.776z"/><path d="M228.477 549.438v-3.475l.522-.376-.02 4.17h-.01l-.443-.319z" fill-rule="evenodd" stroke-width=".42567"/><path d="M229.03 545.614v.005l-.564.405-3.403.024-.545-.275.57-.338z" fill-rule="evenodd" stroke-width=".42567"/><g transform="matrix(.09078 0 0 .11402 174.46 510.153)" stroke-linecap="round" stroke-linejoin="bevel"><path stroke-width=".918" d="M596.842 320.783h36.594v2.746h-36.594z"/><ellipse transform="translate(-.66 .22)" cx="588.78" cy="321.899" rx="1.689" ry="2.129" stroke-width=".8"/><path d="M588.594 320.219a.67.67 0 00-.282.062c-.009.004-.022-.004-.03 0-.473.228-.813.962-.813 1.813 0 .85.34 1.553.812 1.781v.094h8.782v-3.688h-8.188a.67.67 0 00-.281-.062z" stroke-width=".8"/></g><path stroke-width=".340536" stroke-linecap="round" stroke-linejoin="bevel" d="M228.462 548.168h-1.776v.63h1.776z"/><g transform="matrix(.09078 0 0 .11402 174.463 511.789)" stroke-linecap="round" stroke-linejoin="bevel"><path stroke-width=".918" d="M596.842 320.783h36.594v2.746h-36.594z"/><ellipse transform="translate(-.66 .22)" cx="588.78" cy="321.899" rx="1.689" ry="2.129" stroke-width=".8"/><path d="M588.594 320.219a.67.67 0 00-.282.062c-.009.004-.022-.004-.03 0-.473.228-.813.962-.813 1.813 0 .85.34 1.553.812 1.781v.094h8.782v-3.688h-8.188a.67.67 0 00-.281-.062z" stroke-width=".8"/></g></g><g transform="matrix(-.42567 0 0 .42567 401.847 339.425)"><ellipse transform="matrix(.90476 0 0 .92582 48.585 34.204)" cx="359.688" cy="436.526" rx="17.444" ry="16.198" stroke-width=".875" stroke-linecap="round" stroke-linejoin="bevel"/><path d="M387.68 447.352l-5.068-.25-16.989-1.639-2.549 2.206 19.538 2.204zM365.575 445.17l21.226 1.933 3.933-.374-.11-16.412-3.243-.472-21.385 1.493z" fill-rule="evenodd"/><path d="M365.738 445.888v-14.273l-2.354-1.471.147 17.215zM363.368 429.988l2.574 1.497 17.136-1.64 4.846-.151-4.969-2.962z" fill-rule="evenodd"/><g transform="matrix(.78445 0 0 .78445 169.973 202.148)" stroke-width=".8" stroke-linecap="round" stroke-linejoin="bevel"><ellipse transform="translate(-.587 .367)" cx="271.225" cy="300.533" rx="3.965" ry="3.818"/><path d="M271.744 285.634h-2.656v12.094c.426.358.953.538 1.469.531.434-.006.836-.227 1.187-.469zM271.819 316.464h-2.656V304.37a2.244 2.244 0 011.468-.531c.435.006.836.227 1.188.469z"/></g><g transform="matrix(-.41402 0 0 .4525 607.973 287.536)" stroke-linecap="round" stroke-linejoin="bevel"><path stroke-width=".918" d="M596.842 320.783h36.594v2.746h-36.594z"/><ellipse transform="translate(-.66 .22)" cx="588.78" cy="321.899" rx="1.689" ry="2.129" stroke-width=".8"/><path d="M588.594 320.219a.67.67 0 00-.282.062c-.009.004-.022-.004-.03 0-.473.228-.813.962-.813 1.813 0 .85.34 1.553.812 1.781v.094h8.782v-3.688h-8.188a.67.67 0 00-.281-.062z" stroke-width=".8"/></g><g transform="matrix(-.41402 0 0 .4525 608.163 292.366)" stroke-linecap="round" stroke-linejoin="bevel"><path stroke-width=".918" d="M596.842 320.783h36.594v2.746h-36.594z"/><ellipse transform="translate(-.66 .22)" cx="588.78" cy="321.899" rx="1.689" ry="2.129" stroke-width=".8"/><path d="M588.594 320.219a.67.67 0 00-.282.062c-.009.004-.022-.004-.03 0-.473.228-.813.962-.813 1.813 0 .85.34 1.553.812 1.781v.094h8.782v-3.688h-8.188a.67.67 0 00-.281-.062z" stroke-width=".8"/></g><g transform="matrix(-.41402 0 0 .4525 608.032 297.665)" stroke-linecap="round" stroke-linejoin="bevel"><path stroke-width=".918" d="M596.842 320.783h36.594v2.746h-36.594z"/><ellipse transform="translate(-.66 .22)" cx="588.78" cy="321.899" rx="1.689" ry="2.129" stroke-width=".8"/><path d="M588.594 320.219a.67.67 0 00-.282.062c-.009.004-.022-.004-.03 0-.473.228-.813.962-.813 1.813 0 .85.34 1.553.812 1.781v.094h8.782v-3.688h-8.188a.67.67 0 00-.281-.062z" stroke-width=".8"/></g></g><path d="M156.006 528.194l-.125-4.375 2.25-1.876h4.876l.125 8.126h-4.876z" fill-rule="evenodd"/><g transform="matrix(.29955 0 0 .29955 79.696 436.085)" stroke-width=".8" stroke-linecap="round" stroke-linejoin="bevel"><ellipse transform="translate(-.587 .367)" cx="271.225" cy="300.533" rx="3.965" ry="3.818"/><path d="M271.744 285.634h-2.656v12.094c.426.358.953.538 1.469.531.434-.006.836-.227 1.187-.469zM271.819 316.464h-2.656V304.37a2.244 2.244 0 011.468-.531c.435.006.836.227 1.188.469z"/></g><g><path d="M169.57 529.82l-6.876.124c-.636-2.435-.82-4.983-.125-7.75h7.126c.43 2.541.444 5.083-.125 7.625z" fill-rule="evenodd" stroke-width=".42567"/><path stroke-width=".32180652" stroke-linecap="round" stroke-linejoin="bevel" d="M163.169 528.342h2.585v.878h-2.585zM166.51 528.342h2.522v.878h-2.522zM163.2 526.978h2.585v.878H163.2zM166.542 526.978h2.522v.878h-2.522zM163.247 525.547h2.585v.878h-2.585zM166.589 525.547h2.522v.878h-2.522zM163.279 524.184h2.585v.878h-2.585zM166.62 524.184h2.522v.878h-2.522zM163.2 522.817h2.585v.878H163.2zM166.542 522.817h2.522v.878h-2.522z"/></g><path d="M180.383 515.323c-.367.002-.7.045-.998.133a2.784 2.784 0 00-.798.372 2.402 2.402 0 00-.905 1.264c-.075.25-.11.512-.106.785.005.273.046.558.133.838.087.28.226.553.4.824.172.272.39.538.65.785l-6.757-.878a2.013 2.013 0 00-1.01.067 2.208 2.208 0 00-.825.519 2.91 2.91 0 00-.586.838 3.475 3.475 0 00-.306 1.037c-.047.362-.035.727.04 1.091.076.364.21.727.426 1.05.216.324.505.61.878.852a4.12 4.12 0 001.383.546l.054.957v.027l-.04.692a4.12 4.12 0 00-1.384.545 2.982 2.982 0 00-.878.851c-.215.324-.35.688-.425 1.051a3.269 3.269 0 00-.04 1.091c.047.362.154.72.306 1.038.152.318.346.605.585.838.239.232.516.414.825.519.308.104.65.13 1.01.066l6.758-.878c-.26.248-.479.513-.652.785a3.488 3.488 0 00-.399.825c-.087.28-.128.565-.133.838a2.55 2.55 0 00.107.784 2.403 2.403 0 00.904 1.264c.227.158.5.285.798.373.298.087.631.13.998.133a3.58 3.58 0 00.971-.12c.286-.078.536-.187.745-.333.21-.145.382-.318.519-.518s.238-.436.306-.679c.135-.485.143-1.033.026-1.61a5.622 5.622 0 00-.691-1.742l2.62 1.13c.29.16.576.255.852.307a2.302 2.302 0 001.476-.213 1.876 1.876 0 00.891-.998c.082-.21.134-.431.133-.665 0-.234-.049-.477-.146-.718a2.466 2.466 0 00-.452-.719l-3.379-1.37.066-2.567.014-.293h-.027l-.066-2.567 3.378-1.37c.207-.232.356-.477.453-.718.097-.242.146-.485.146-.719 0-.234-.05-.455-.133-.665a1.876 1.876 0 00-.891-.998 2.302 2.302 0 00-1.477-.213 2.864 2.864 0 00-.851.307l-2.62 1.13a5.622 5.622 0 00.691-1.742c.117-.577.109-1.125-.027-1.61a2.32 2.32 0 00-.305-.678c-.137-.2-.31-.373-.52-.52a2.398 2.398 0 00-.744-.332 3.564 3.564 0 00-.971-.12z" stroke-width=".404" stroke-linecap="round" stroke-linejoin="bevel"/><ellipse transform="translate(17.737 383.389) scale(.42567)" cx="380.038" cy="334.454" rx="9.104" ry="9.251" stroke-width=".875" stroke-linecap="round" stroke-linejoin="bevel"/><g transform="matrix(.29955 0 0 .29955 98.065 435.64)" stroke-width=".8" stroke-linecap="round" stroke-linejoin="bevel"><ellipse transform="translate(-.587 .367)" cx="271.225" cy="300.533" rx="3.965" ry="3.818"/><path d="M271.744 285.634h-2.656v12.094c.426.358.953.538 1.469.531.434-.006.836-.227 1.187-.469zM271.819 316.464h-2.656V304.37a2.244 2.244 0 011.468-.531c.435.006.836.227 1.188.469z"/></g><ellipse transform="translate(17.737 383.389) scale(.42567)" cx="366.022" cy="362.595" rx="2.388" ry="2.492" stroke-width=".875" stroke-linecap="round" stroke-linejoin="bevel"/><ellipse transform="translate(17.083 361.301) scale(.42567)" cx="366.022" cy="362.595" rx="2.388" ry="2.492" stroke-width=".875" stroke-linecap="round" stroke-linejoin="bevel"/><path stroke-width=".372" stroke-linecap="round" stroke-linejoin="bevel" d="M178.979 534.376h2.475v1.414h-2.475zM179.156 516.873h2.475v1.414h-2.475zM184.908 532.442l1.238-2.144 1.224.707-1.237 2.144zM184.82 520.044l1.237 2.143 1.225-.707-1.237-2.143z"/><g transform="translate(-26.86 340.235) scale(.42567)"><ellipse transform="matrix(.90476 0 0 .92582 48.585 34.204)" cx="359.688" cy="436.526" rx="17.444" ry="16.198" stroke-width=".875" stroke-linecap="round" stroke-linejoin="bevel"/><path d="M387.68 447.352l-5.068-.25-16.989-1.639-2.549 2.206 19.538 2.204zM365.575 445.17l21.226 1.933 3.933-.374-.11-16.412-3.243-.472-21.385 1.493z" fill-rule="evenodd"/><path d="M365.738 445.888v-14.273l-2.354-1.471.147 17.215zM363.368 429.988l2.574 1.497 17.136-1.64 4.846-.151-4.969-2.962z" fill-rule="evenodd"/><g transform="matrix(.78445 0 0 .78445 169.973 202.148)" stroke-width=".8" stroke-linecap="round" stroke-linejoin="bevel"><ellipse transform="translate(-.587 .367)" cx="271.225" cy="300.533" rx="3.965" ry="3.818"/><path d="M271.744 285.634h-2.656v12.094c.426.358.953.538 1.469.531.434-.006.836-.227 1.187-.469zM271.819 316.464h-2.656V304.37a2.244 2.244 0 011.468-.531c.435.006.836.227 1.188.469z"/></g><g transform="matrix(-.41402 0 0 .4525 607.973 287.536)" stroke-linecap="round" stroke-linejoin="bevel"><path stroke-width=".918" d="M596.842 320.783h36.594v2.746h-36.594z"/><ellipse transform="translate(-.66 .22)" cx="588.78" cy="321.899" rx="1.689" ry="2.129" stroke-width=".8"/><path d="M588.594 320.219a.67.67 0 00-.282.062c-.009.004-.022-.004-.03 0-.473.228-.813.962-.813 1.813 0 .85.34 1.553.812 1.781v.094h8.782v-3.688h-8.188a.67.67 0 00-.281-.062z" stroke-width=".8"/></g><g transform="matrix(-.41402 0 0 .4525 608.163 292.366)" stroke-linecap="round" stroke-linejoin="bevel"><path stroke-width=".918" d="M596.842 320.783h36.594v2.746h-36.594z"/><ellipse transform="translate(-.66 .22)" cx="588.78" cy="321.899" rx="1.689" ry="2.129" stroke-width=".8"/><path d="M588.594 320.219a.67.67 0 00-.282.062c-.009.004-.022-.004-.03 0-.473.228-.813.962-.813 1.813 0 .85.34 1.553.812 1.781v.094h8.782v-3.688h-8.188a.67.67 0 00-.281-.062z" stroke-width=".8"/></g><g transform="matrix(-.41402 0 0 .4525 608.032 297.665)" stroke-linecap="round" stroke-linejoin="bevel"><path stroke-width=".918" d="M596.842 320.783h36.594v2.746h-36.594z"/><ellipse transform="translate(-.66 .22)" cx="588.78" cy="321.899" rx="1.689" ry="2.129" stroke-width=".8"/><path d="M588.594 320.219a.67.67 0 00-.282.062c-.009.004-.022-.004-.03 0-.473.228-.813.962-.813 1.813 0 .85.34 1.553.812 1.781v.094h8.782v-3.688h-8.188a.67.67 0 00-.281-.062z" stroke-width=".8"/></g></g><g transform="translate(-10.902 340.024) scale(.42567)"><ellipse transform="matrix(.90476 0 0 .92582 48.585 34.204)" cx="359.688" cy="436.526" rx="17.444" ry="16.198" stroke-width=".875" stroke-linecap="round" stroke-linejoin="bevel"/><path d="M387.68 447.352l-5.068-.25-16.989-1.639-2.549 2.206 19.538 2.204zM365.575 445.17l21.226 1.933 3.933-.374-.11-16.412-3.243-.472-21.385 1.493z" fill-rule="evenodd"/><path d="M365.738 445.888v-14.273l-2.354-1.471.147 17.215zM363.368 429.988l2.574 1.497 17.136-1.64 4.846-.151-4.969-2.962z" fill-rule="evenodd"/><g transform="matrix(.78445 0 0 .78445 169.973 202.148)" stroke-width=".8" stroke-linecap="round" stroke-linejoin="bevel"><ellipse transform="translate(-.587 .367)" cx="271.225" cy="300.533" rx="3.965" ry="3.818"/><path d="M271.744 285.634h-2.656v12.094c.426.358.953.538 1.469.531.434-.006.836-.227 1.187-.469zM271.819 316.464h-2.656V304.37a2.244 2.244 0 011.468-.531c.435.006.836.227 1.188.469z"/></g><g transform="matrix(-.41402 0 0 .4525 607.973 287.536)" stroke-linecap="round" stroke-linejoin="bevel"><path stroke-width=".918" d="M596.842 320.783h36.594v2.746h-36.594z"/><ellipse transform="translate(-.66 .22)" cx="588.78" cy="321.899" rx="1.689" ry="2.129" stroke-width=".8"/><path d="M588.594 320.219a.67.67 0 00-.282.062c-.009.004-.022-.004-.03 0-.473.228-.813.962-.813 1.813 0 .85.34 1.553.812 1.781v.094h8.782v-3.688h-8.188a.67.67 0 00-.281-.062z" stroke-width=".8"/></g><g transform="matrix(-.41402 0 0 .4525 608.163 292.366)" stroke-linecap="round" stroke-linejoin="bevel"><path stroke-width=".918" d="M596.842 320.783h36.594v2.746h-36.594z"/><ellipse transform="translate(-.66 .22)" cx="588.78" cy="321.899" rx="1.689" ry="2.129" stroke-width=".8"/><path d="M588.594 320.219a.67.67 0 00-.282.062c-.009.004-.022-.004-.03 0-.473.228-.813.962-.813 1.813 0 .85.34 1.553.812 1.781v.094h8.782v-3.688h-8.188a.67.67 0 00-.281-.062z" stroke-width=".8"/></g><g transform="matrix(-.41402 0 0 .4525 608.032 297.665)" stroke-linecap="round" stroke-linejoin="bevel"><path stroke-width=".918" d="M596.842 320.783h36.594v2.746h-36.594z"/><ellipse transform="translate(-.66 .22)" cx="588.78" cy="321.899" rx="1.689" ry="2.129" stroke-width=".8"/><path d="M588.594 320.219a.67.67 0 00-.282.062c-.009.004-.022-.004-.03 0-.473.228-.813.962-.813 1.813 0 .85.34 1.553.812 1.781v.094h8.782v-3.688h-8.188a.67.67 0 00-.281-.062z" stroke-width=".8"/></g></g><g><path d="M166.071 548.145l-.589-.294-3.403.024-.444.318 3.847.203zM165.53 544.451l-3.36-.02-.041-.03v3.473l3.355-.025-.013-.013v-3.355z" fill-rule="evenodd" stroke-width=".42567"/><path d="M165.53 544.451l-.059.03v3.355l.013.013.012.004.576.294.046-.02c1.015-.364.985-3.5 0-3.948l-.546.273z" fill-rule="evenodd" stroke-width=".42567"/><path stroke-width=".340536" stroke-linecap="round" stroke-linejoin="bevel" d="M162.155 544.994h1.776v.631h-1.776z"/><path d="M162.16 547.843v-3.475l-.521-.377.019 4.17h.01l.444-.318z" fill-rule="evenodd" stroke-width=".42567"/><path d="M161.606 544.019v.004l.565.406 3.403.024.545-.275-.57-.338z" fill-rule="evenodd" stroke-width=".42567"/><g transform="matrix(-.09078 0 0 .11402 216.178 508.558)" stroke-linecap="round" stroke-linejoin="bevel"><path stroke-width=".918" d="M596.842 320.783h36.594v2.746h-36.594z"/><ellipse transform="translate(-.66 .22)" cx="588.78" cy="321.899" rx="1.689" ry="2.129" stroke-width=".8"/><path d="M588.594 320.219a.67.67 0 00-.282.062c-.009.004-.022-.004-.03 0-.473.228-.813.962-.813 1.813 0 .85.34 1.553.812 1.781v.094h8.782v-3.688h-8.188a.67.67 0 00-.281-.062z" stroke-width=".8"/></g><path stroke-width=".340536" stroke-linecap="round" stroke-linejoin="bevel" d="M162.175 546.572h1.776v.631h-1.776z"/><g transform="matrix(-.09078 0 0 .11402 216.174 510.193)" stroke-linecap="round" stroke-linejoin="bevel"><path stroke-width=".918" d="M596.842 320.783h36.594v2.746h-36.594z"/><ellipse transform="translate(-.66 .22)" cx="588.78" cy="321.899" rx="1.689" ry="2.129" stroke-width=".8"/><path d="M588.594 320.219a.67.67 0 00-.282.062c-.009.004-.022-.004-.03 0-.473.228-.813.962-.813 1.813 0 .85.34 1.553.812 1.781v.094h8.782v-3.688h-8.188a.67.67 0 00-.281-.062z" stroke-width=".8"/></g></g><g><path d="M153.254 546.02l-.588-.294-3.403.025-.444.318 3.847.203zM152.714 542.327l-3.36-.02-.042-.03v3.473l3.355-.025-.012-.013v-3.355z" fill-rule="evenodd" stroke-width=".42567"/><path d="M152.714 542.327l-.06.03v3.355l.013.013.013.004.575.294.046-.021c1.015-.363.985-3.499 0-3.948l-.545.273z" fill-rule="evenodd" stroke-width=".42567"/><path stroke-width=".340536" stroke-linecap="round" stroke-linejoin="bevel" d="M149.339 542.87h1.776v.63h-1.776z"/><path d="M149.343 545.719v-3.476l-.521-.376.02 4.17h.009l.444-.318z" fill-rule="evenodd" stroke-width=".42567"/><path d="M148.79 541.894v.005l.565.405 3.402.025.546-.276-.57-.337z" fill-rule="evenodd" stroke-width=".42567"/><g transform="matrix(-.09078 0 0 .11402 203.361 506.433)" stroke-linecap="round" stroke-linejoin="bevel"><path stroke-width=".918" d="M596.842 320.783h36.594v2.746h-36.594z"/><ellipse transform="translate(-.66 .22)" cx="588.78" cy="321.899" rx="1.689" ry="2.129" stroke-width=".8"/><path d="M588.594 320.219a.67.67 0 00-.282.062c-.009.004-.022-.004-.03 0-.473.228-.813.962-.813 1.813 0 .85.34 1.553.812 1.781v.094h8.782v-3.688h-8.188a.67.67 0 00-.281-.062z" stroke-width=".8"/></g><path stroke-width=".340536" stroke-linecap="round" stroke-linejoin="bevel" d="M149.358 544.448h1.776v.631h-1.776z"/><g transform="matrix(-.09078 0 0 .11402 203.357 508.07)" stroke-linecap="round" stroke-linejoin="bevel"><path stroke-width=".918" d="M596.842 320.783h36.594v2.746h-36.594z"/><ellipse transform="translate(-.66 .22)" cx="588.78" cy="321.899" rx="1.689" ry="2.129" stroke-width=".8"/><path d="M588.594 320.219a.67.67 0 00-.282.062c-.009.004-.022-.004-.03 0-.473.228-.813.962-.813 1.813 0 .85.34 1.553.812 1.781v.094h8.782v-3.688h-8.188a.67.67 0 00-.281-.062z" stroke-width=".8"/></g></g><g><path d="M164.07 505.962l-.588.294-3.403-.024-.444-.318 3.847-.203zM163.53 509.656l-3.36.02-.042.03v-3.473l3.356.025-.013.013v3.355z" fill-rule="evenodd" stroke-width=".42567"/><path d="M163.53 509.656l-.059-.03v-3.355l.013-.013.012-.004.576-.294.046.021c1.014.363.985 3.499 0 3.947l-.546-.273z" fill-rule="evenodd" stroke-width=".42567"/><path stroke-width=".340536" stroke-linecap="round" stroke-linejoin="bevel" d="M160.155 509.113h1.776v-.631h-1.776z"/><path d="M160.16 506.264v3.475l-.522.377.02-4.17h.01l.443.318z" fill-rule="evenodd" stroke-width=".42567"/><path d="M159.606 510.089v-.005l.565-.406 3.403-.024.545.275-.57.338z" fill-rule="evenodd" stroke-width=".42567"/><g transform="matrix(-.09078 0 0 -.11402 214.178 545.55)" stroke-linecap="round" stroke-linejoin="bevel"><path stroke-width=".918" d="M596.842 320.783h36.594v2.746h-36.594z"/><ellipse transform="translate(-.66 .22)" cx="588.78" cy="321.899" rx="1.689" ry="2.129" stroke-width=".8"/><path d="M588.594 320.219a.67.67 0 00-.282.062c-.009.004-.022-.004-.03 0-.473.228-.813.962-.813 1.813 0 .85.34 1.553.812 1.781v.094h8.782v-3.688h-8.188a.67.67 0 00-.281-.062z" stroke-width=".8"/></g><path stroke-width=".340536" stroke-linecap="round" stroke-linejoin="bevel" d="M160.175 507.535h1.776v-.631h-1.776z"/><g transform="matrix(-.09078 0 0 -.11402 214.174 543.914)" stroke-linecap="round" stroke-linejoin="bevel"><path stroke-width=".918" d="M596.842 320.783h36.594v2.746h-36.594z"/><ellipse transform="translate(-.66 .22)" cx="588.78" cy="321.899" rx="1.689" ry="2.129" stroke-width=".8"/><path d="M588.594 320.219a.67.67 0 00-.282.062c-.009.004-.022-.004-.03 0-.473.228-.813.962-.813 1.813 0 .85.34 1.553.812 1.781v.094h8.782v-3.688h-8.188a.67.67 0 00-.281-.062z" stroke-width=".8"/></g></g><g><path d="M151.254 508.086l-.589.295-3.402-.025-.444-.318 3.846-.203zM150.713 511.78l-3.36.02-.041.03v-3.473l3.355.026-.013.012v3.355z" fill-rule="evenodd" stroke-width=".42567"/><path d="M150.713 511.78l-.059-.03v-3.355l.013-.012.013-.005.575-.294.046.021c1.015.363.985 3.5 0 3.948l-.546-.273z" fill-rule="evenodd" stroke-width=".42567"/><path stroke-width=".340536" stroke-linecap="round" stroke-linejoin="bevel" d="M147.339 511.238h1.776v-.632h-1.776z"/><path d="M147.343 508.389v3.475l-.521.376.019-4.17h.01l.444.319z" fill-rule="evenodd" stroke-width=".42567"/><path d="M146.79 512.213v-.005l.564-.405 3.403-.025.545.276-.57.337z" fill-rule="evenodd" stroke-width=".42567"/><g transform="matrix(-.09078 0 0 -.11402 201.361 547.674)" stroke-linecap="round" stroke-linejoin="bevel"><path stroke-width=".918" d="M596.842 320.783h36.594v2.746h-36.594z"/><ellipse transform="translate(-.66 .22)" cx="588.78" cy="321.899" rx="1.689" ry="2.129" stroke-width=".8"/><path d="M588.594 320.219a.67.67 0 00-.282.062c-.009.004-.022-.004-.03 0-.473.228-.813.962-.813 1.813 0 .85.34 1.553.812 1.781v.094h8.782v-3.688h-8.188a.67.67 0 00-.281-.062z" stroke-width=".8"/></g><path stroke-width=".340536" stroke-linecap="round" stroke-linejoin="bevel" d="M147.358 509.66h1.776v-.632h-1.776z"/><g transform="matrix(-.09078 0 0 -.11402 201.357 546.038)" stroke-linecap="round" stroke-linejoin="bevel"><path stroke-width=".918" d="M596.842 320.783h36.594v2.746h-36.594z"/><ellipse transform="translate(-.66 .22)" cx="588.78" cy="321.899" rx="1.689" ry="2.129" stroke-width=".8"/><path d="M588.594 320.219a.67.67 0 00-.282.062c-.009.004-.022-.004-.03 0-.473.228-.813.962-.813 1.813 0 .85.34 1.553.812 1.781v.094h8.782v-3.688h-8.188a.67.67 0 00-.281-.062z" stroke-width=".8"/></g></g><g><path d="M183.713 549.48l.588-.295 3.403.024.444.319-3.847.203zM184.254 545.786l3.36-.021.041-.03v3.473l-3.355-.025.012-.012v-3.356z" fill-rule="evenodd" stroke-width=".42567"/><path d="M184.254 545.786l.058.03v3.355l-.012.012-.013.004-.575.294-.046-.02c-1.015-.364-.985-3.5 0-3.948l.546.273z" fill-rule="evenodd" stroke-width=".42567"/><path stroke-width=".340536" stroke-linecap="round" stroke-linejoin="bevel" d="M187.628 546.328h-1.776v.631h1.776z"/><path d="M187.624 549.177v-3.475l.521-.376-.02 4.17h-.009l-.444-.319z" fill-rule="evenodd" stroke-width=".42567"/><path d="M188.177 545.353v.005l-.565.405-3.402.024-.546-.275.57-.338z" fill-rule="evenodd" stroke-width=".42567"/><g transform="matrix(.09078 0 0 .11402 133.606 509.892)" stroke-linecap="round" stroke-linejoin="bevel"><path stroke-width=".918" d="M596.842 320.783h36.594v2.746h-36.594z"/><ellipse transform="translate(-.66 .22)" cx="588.78" cy="321.899" rx="1.689" ry="2.129" stroke-width=".8"/><path d="M588.594 320.219a.67.67 0 00-.282.062c-.009.004-.022-.004-.03 0-.473.228-.813.962-.813 1.813 0 .85.34 1.553.812 1.781v.094h8.782v-3.688h-8.188a.67.67 0 00-.281-.062z" stroke-width=".8"/></g><path stroke-width=".340536" stroke-linecap="round" stroke-linejoin="bevel" d="M187.609 547.907h-1.776v.63h1.776z"/><g transform="matrix(.09078 0 0 .11402 133.61 511.528)" stroke-linecap="round" stroke-linejoin="bevel"><path stroke-width=".918" d="M596.842 320.783h36.594v2.746h-36.594z"/><ellipse transform="translate(-.66 .22)" cx="588.78" cy="321.899" rx="1.689" ry="2.129" stroke-width=".8"/><path d="M588.594 320.219a.67.67 0 00-.282.062c-.009.004-.022-.004-.03 0-.473.228-.813.962-.813 1.813 0 .85.34 1.553.812 1.781v.094h8.782v-3.688h-8.188a.67.67 0 00-.281-.062z" stroke-width=".8"/></g></g><g><path d="M196.53 547.355l.588-.294 3.403.024.444.319-3.847.202zM197.07 543.662l3.36-.021.042-.03v3.473l-3.356-.025.013-.013v-3.355z" fill-rule="evenodd" stroke-width=".42567"/><path d="M197.07 543.662l.059.029v3.355l-.013.013-.012.004-.576.294-.046-.02c-1.014-.364-.985-3.5 0-3.948l.546.273z" fill-rule="evenodd" stroke-width=".42567"/><path stroke-width=".340536" stroke-linecap="round" stroke-linejoin="bevel" d="M200.445 544.204h-1.776v.631h1.776z"/><path d="M200.44 547.053v-3.475l.522-.377-.02 4.17h-.01l-.443-.318z" fill-rule="evenodd" stroke-width=".42567"/><path d="M200.994 543.229v.004l-.565.406-3.403.024-.545-.275.57-.338z" fill-rule="evenodd" stroke-width=".42567"/><g transform="matrix(.09078 0 0 .11402 146.422 507.768)" stroke-linecap="round" stroke-linejoin="bevel"><path stroke-width=".918" d="M596.842 320.783h36.594v2.746h-36.594z"/><ellipse transform="translate(-.66 .22)" cx="588.78" cy="321.899" rx="1.689" ry="2.129" stroke-width=".8"/><path d="M588.594 320.219a.67.67 0 00-.282.062c-.009.004-.022-.004-.03 0-.473.228-.813.962-.813 1.813 0 .85.34 1.553.812 1.781v.094h8.782v-3.688h-8.188a.67.67 0 00-.281-.062z" stroke-width=".8"/></g><path stroke-width=".340536" stroke-linecap="round" stroke-linejoin="bevel" d="M200.425 545.782h-1.776v.631h1.776z"/><g transform="matrix(.09078 0 0 .11402 146.426 509.403)" stroke-linecap="round" stroke-linejoin="bevel"><path stroke-width=".918" d="M596.842 320.783h36.594v2.746h-36.594z"/><ellipse transform="translate(-.66 .22)" cx="588.78" cy="321.899" rx="1.689" ry="2.129" stroke-width=".8"/><path d="M588.594 320.219a.67.67 0 00-.282.062c-.009.004-.022-.004-.03 0-.473.228-.813.962-.813 1.813 0 .85.34 1.553.812 1.781v.094h8.782v-3.688h-8.188a.67.67 0 00-.281-.062z" stroke-width=".8"/></g></g><path d="M207.858 532.943L196.23 548.82l.25.125 12.252-15.377z" fill-rule="evenodd" stroke-width=".426"/><g><path d="M184.268 503.127l.589.295 3.403-.024.444-.319-3.847-.203z" fill-rule="evenodd" stroke-width=".42567"/><path d="M184.809 506.821l3.36.021.041.03v-3.474l-3.355.026.013.012v3.356z" fill-rule="evenodd" stroke-width=".42567"/><path d="M184.809 506.821l.059-.03v-3.355l-.013-.012-.012-.005-.576-.294-.046.021c-1.015.364-.985 3.5 0 3.948l.546-.273z" fill-rule="evenodd" stroke-width=".42567"/><path stroke-width=".340536" stroke-linecap="round" stroke-linejoin="bevel" d="M188.184 506.279h-1.776v-.632h1.776z"/><path d="M188.18 503.43v3.475l.52.376-.019-4.17h-.01l-.444.319z" fill-rule="evenodd" stroke-width=".42567"/><path d="M188.733 507.254v-.005l-.565-.405-3.403-.024-.545.275.57.338z" fill-rule="evenodd" stroke-width=".42567"/><g transform="matrix(.09078 0 0 -.11402 134.161 542.715)" stroke-linecap="round" stroke-linejoin="bevel"><path stroke-width=".918" d="M596.842 320.783h36.594v2.746h-36.594z"/><ellipse transform="translate(-.66 .22)" cx="588.78" cy="321.899" rx="1.689" ry="2.129" stroke-width=".8"/><path d="M588.594 320.219a.67.67 0 00-.282.062c-.009.004-.022-.004-.03 0-.473.228-.813.962-.813 1.813 0 .85.34 1.553.812 1.781v.094h8.782v-3.688h-8.188a.67.67 0 00-.281-.062z" stroke-width=".8"/></g><path stroke-width=".340536" stroke-linecap="round" stroke-linejoin="bevel" d="M188.164 504.7h-1.776v-.63h1.776z"/><g transform="matrix(.09078 0 0 -.11402 134.165 541.08)" stroke-linecap="round" stroke-linejoin="bevel"><path stroke-width=".918" d="M596.842 320.783h36.594v2.746h-36.594z"/><ellipse transform="translate(-.66 .22)" cx="588.78" cy="321.899" rx="1.689" ry="2.129" stroke-width=".8"/><path d="M588.594 320.219a.67.67 0 00-.282.062c-.009.004-.022-.004-.03 0-.473.228-.813.962-.813 1.813 0 .85.34 1.553.812 1.781v.094h8.782v-3.688h-8.188a.67.67 0 00-.281-.062z" stroke-width=".8"/></g></g><g><path d="M197.085 505.252l.588.294 3.403-.024.444-.319-3.847-.202zM197.625 508.945l3.36.021.042.03v-3.473l-3.355.025.012.013v3.355z" fill-rule="evenodd" stroke-width=".42567"/><path d="M197.625 508.945l.06-.03v-3.354l-.013-.013-.013-.004-.575-.294-.046.02c-1.015.364-.985 3.5 0 3.948l.545-.273z" fill-rule="evenodd" stroke-width=".42567"/><path stroke-width=".340536" stroke-linecap="round" stroke-linejoin="bevel" d="M201 508.403h-1.776v-.631H201z"/><path d="M200.996 505.554v3.475l.521.377-.02-4.17h-.009l-.444.318z" fill-rule="evenodd" stroke-width=".42567"/><path d="M201.55 509.378v-.005l-.566-.405-3.402-.024-.546.275.57.338z" fill-rule="evenodd" stroke-width=".42567"/><g transform="matrix(.09078 0 0 -.11402 146.978 544.84)" stroke-linecap="round" stroke-linejoin="bevel"><path stroke-width=".918" d="M596.842 320.783h36.594v2.746h-36.594z"/><ellipse transform="translate(-.66 .22)" cx="588.78" cy="321.899" rx="1.689" ry="2.129" stroke-width=".8"/><path d="M588.594 320.219a.67.67 0 00-.282.062c-.009.004-.022-.004-.03 0-.473.228-.813.962-.813 1.813 0 .85.34 1.553.812 1.781v.094h8.782v-3.688h-8.188a.67.67 0 00-.281-.062z" stroke-width=".8"/></g><path stroke-width=".340536" stroke-linecap="round" stroke-linejoin="bevel" d="M200.98 506.825h-1.775v-.632h1.776z"/><g transform="matrix(.09078 0 0 -.11402 146.981 543.203)" stroke-linecap="round" stroke-linejoin="bevel"><path stroke-width=".918" d="M596.842 320.783h36.594v2.746h-36.594z"/><ellipse transform="translate(-.66 .22)" cx="588.78" cy="321.899" rx="1.689" ry="2.129" stroke-width=".8"/><path d="M588.594 320.219a.67.67 0 00-.282.062c-.009.004-.022-.004-.03 0-.473.228-.813.962-.813 1.813 0 .85.34 1.553.812 1.781v.094h8.782v-3.688h-8.188a.67.67 0 00-.281-.062z" stroke-width=".8"/></g></g><path d="M207.358 519.816L195.73 503.94l.25-.125 12.252 15.377z" fill-rule="evenodd" stroke-width=".426"/></g></svg>