<svg width="1000" height="121.872" xmlns="http://www.w3.org/2000/svg"><defs><linearGradient id="prefix__e"><stop offset="0" stop-color="#fcffff" stop-opacity=".268"/><stop offset="1" stop-color="#fcffff" stop-opacity="0"/></linearGradient><linearGradient id="prefix__d"><stop offset="0" stop-color="#000100" stop-opacity=".018"/><stop offset="1" stop-color="#000100" stop-opacity=".152"/></linearGradient><linearGradient id="prefix__c"><stop offset="0" stop-color="#000100" stop-opacity="0"/><stop offset=".613" stop-color="#000100" stop-opacity=".208"/><stop offset="1" stop-color="#000100" stop-opacity=".491"/></linearGradient><linearGradient id="prefix__b"><stop offset="0" stop-color="#fbffff" stop-opacity=".205"/><stop offset="1" stop-color="#fbffff" stop-opacity="0"/></linearGradient><linearGradient id="prefix__f"><stop offset="0" stop-opacity=".321"/><stop offset=".817" stop-opacity="0"/><stop offset="1" stop-opacity=".054"/></linearGradient><linearGradient id="prefix__g"><stop offset="0" stop-opacity=".732"/><stop offset=".195" stop-opacity=".141"/><stop offset="1" stop-opacity="0"/></linearGradient><linearGradient id="prefix__h"><stop offset="0" stop-opacity=".536"/><stop offset=".724" stop-opacity="0"/><stop offset="1" stop-opacity=".179"/></linearGradient><linearGradient id="prefix__a"><stop offset="0" stop-opacity=".304"/><stop offset="1" stop-opacity="0"/></linearGradient></defs><g transform="matrix(.6853 0 0 .6853 -9.11 -216.291)" stroke="#000"><path stroke-linecap="round" d="M602.29 336.572h50.771v40.617h-50.77z"/><path d="M107.138 396.896c95.123-25.609 249.502-55.304 289.049-54.76h797.689c134.286-1.044 199.1 24.883 274.95 63.07-72.58 42.68-142.708 61.252-274.542 61.433H394.962c-44.996 1.362-194.198-32.42-287.006-59.663l-81.596.51-10.76-5.268 10.749-4.993z" stroke-width="1.985"/><path d="M104.5 330.26h43.931v56.182L104.5 396.49zM134.59 390.776v-61.155" stroke-width=".993"/><path d="M179.66 321.941c-.604-5.047 8.365-10.094 11.765 0l17.056 50.871-28.648 6.44zM1313.447 332.308h41.227l.224 26.98c-13.966-3.656-27.56-6.863-41.45-9.175zM1363.002 322.897c-.809-5.072 5.642-6.096 7.207-1.815l17.033 48.431-23.82-8.656zM1313.447 478.686h41.227l.224-26.98c-13.966 3.655-27.612 5.975-41.503 8.288zM1363.002 488.096c-.809 5.073 5.642 6.097 7.207 1.815l17.033-47.221-23.82 7.446z" stroke-width=".993" stroke-linecap="round"/><path d="M104.5 474.255h43.931v-56.183L104.5 408.024zM134.59 413.738v61.155" stroke-width=".993"/><path d="M180.132 484.934c-.603 5.047 8.366 10.094 11.765 0l17.056-50.87-28.647-6.44z" stroke-width=".993" stroke-linecap="round"/><g stroke-width=".6"><path d="M847.41 341.688v46.005M937.79 341.04v46.653M1028.171 341.448v46.245M1119.214 342.674v45.02M1211.581 341.448v46.245" stroke-width="1.191078"/></g><path d="M226.336 380.592l14.492 3.47-.711 2.968-14.491-3.47z"/><path stroke-width=".338" d="M227.372 380.591l13.57 3.25-.55 2.302-13.571-3.25z"/><path d="M204.898 375.458l14.492 3.47-.711 2.969-14.491-3.47z"/><path stroke-width=".338" d="M205.934 375.458l13.57 3.25-.55 2.301-13.571-3.25z"/><path d="M247.773 385.725l14.492 3.47-.711 2.968-14.491-3.47z"/><path stroke-width=".338" d="M248.809 385.724l13.57 3.25-.55 2.302-13.571-3.25z"/><g stroke-width=".6"><path d="M847.41 419.703v46.006M937.79 419.055v46.654M1028.171 419.463v46.246M1119.214 420.69v45.019M1211.581 419.463v46.246" stroke-width="1.191078"/></g><g stroke-width=".5"><path d="M574.957 342.126v36.417M666.175 342.126v32.936M757.24 342.126v30.069" stroke-width=".992565"/></g><path d="M413.485 342.977v55.369" stroke-width=".993"/><g stroke-width=".5"><path d="M574.957 429.471v36.418M666.175 432.953v32.936M757.24 435.82v30.069" stroke-width=".992565"/></g><path d="M413.485 410.471v55.369" stroke-width=".993"/><path stroke-linecap="round" d="M602.29 336.572h50.771v40.617h-50.77z"/><path d="M1313.447 332.308h41.227l.224 26.98c-13.966-3.656-27.56-6.863-41.45-9.175zM1313.134 479.082h41.227l.223-26.98c-13.966 3.655-27.298 5.663-41.189 7.975zM1363.002 322.897c-.809-5.072 5.642-6.096 7.207-1.815l17.033 48.431-23.82-8.656zM1363.305 488.459c-.81 5.073 5.642 6.096 7.206 1.815l17.033-48.43-23.82 8.655zM179.66 321.941c-.604-5.047 8.365-10.094 11.765 0l17.056 50.871-28.648 6.44zM179.66 484.59c-.604 5.048 8.365 10.095 11.765 0l17.056-50.87-28.648-6.44zM109.921 397.21c38.364-11.08 134.781-30.33 173.145-38.75l-19.337 23.752-109.04 17.344zM104.5 330.26h43.931v56.182L104.5 396.49zM104.826 473.933h43.932V417.75l-43.932-10.048z"/><path d="M151.436 405.938c45.108-2.26 91.497-.679 135.965 5.385l12.783 41.595c-63.823-13.775-128.286-27.337-190.829-46.45z"/><path transform="matrix(.9725 -.23288 -.23288 -.9725 0 0)" d="M120.777-467.542h14.901v3.052h-14.901z"/><path transform="matrix(.9725 -.23288 -.23288 -.9725 0 0)" stroke-width=".338" d="M121.784-467.785h13.954v2.367h-13.954z"/><path transform="matrix(.9725 -.23288 -.23288 -.9725 0 0)" d="M98.734-467.542h14.901v3.052H98.734z"/><path transform="matrix(.9725 -.23288 -.23288 -.9725 0 0)" stroke-width=".338" d="M99.741-467.785h13.954v2.367H99.741z"/><path transform="matrix(.9725 -.23288 -.23288 -.9725 0 0)" d="M142.821-467.542h14.901v3.052h-14.901z"/><path transform="matrix(.9725 -.23288 -.23288 -.9725 0 0)" stroke-width=".338" d="M143.828-467.785h13.954v2.367h-13.954z"/><path d="M492.38 341.57v36.339M492.38 428.915v36.34M267.01 361.054v85.15" stroke-width=".993"/><ellipse transform="matrix(1.98513 .2941 0 1.98513 1.29 -706.83)" cx="677.369" cy="466.688" rx="26.896" ry="7.471"/><path d="M87.042 406.516l4.182.323 2.788 21.62c-.93 11.94-6.39 11.617-8.365 1.614z" stroke-width=".875"/><path d="M91.426 395.98l-4.182-.278-2.789-18.625c.93-10.286 6.39-10.008 8.365-1.39z" stroke-width=".812"/><path stroke-width=".993" d="M874.154 386.225h7.91v34.664h-7.91zM961.5 386.225h7.91v34.664h-7.91zM1060.756 386.225h7.91v34.664h-7.91zM1156.042 386.225h7.91v34.664h-7.91z"/><path d="M790.434 391.328l7.69 3.496V415.1l-7.69 3.496z" stroke-width=".993" stroke-linecap="round"/><path d="M793.679 391.839l7.43-.05c1.781-.014 3.215 1.335 3.215 2.993v19.242c0 1.659-1.434 2.994-3.215 2.994h-7.485l.004-2.163 7.336-.059 1.01-1.238.054-17.98-1.16-1.021-7.317-.073z" stroke-width=".89" stroke-linecap="round"/><path d="M50.581 397.497v10.154M101.352 397.497v10.154"/><path d="M665.236 373.434l11.9.036.293-2.36c26.674-2.15 59.036-1.45 80.022 0 20.987 1.45 38.644 7.852 38.777 32.839.134 24.987-17.439 31.753-39.259 32.839-21.82 1.085-53.188 2.15-79.781 0l-.093-2.324h-11.277c-29.867-1.807-65.187-13.14-82.441-30.515 22.514-16.91 52.186-28.708 81.859-30.515z" stroke-width=".765" stroke-linecap="round"/><path d="M683.836 376.015c25.408-2.15 59.1-1.732 76.224 0 17.124 1.733 28.812 8.854 28.673 26.882-.138 18.028-7.597 24.033-28.673 26.403-21.076 2.37-50.577 3.345-76.224 1.195l.027-24.287z" stroke-width=".993" stroke-linecap="round"/><path d="M715.718 374.913c40.661 1.38 73.102-3.895 72.825 28.722-.278 32.617-42.084 26.016-72.705 27.638 21.889-14.69 26.066-40.706-.12-56.36z"/><path d="M684.26 416.628c6.63.407 12.464-5.971 12.193-12.551-.272-6.62-4.617-13.125-12.054-12.986l-.243 3.984c-5.73-.156-16.889 3.041-20.925 8.482 3.613 5.263 15.078 9.695 21.066 9.48z" stroke-width=".993" stroke-linecap="round"/><path d="M684.26 416.628c6.63.407 12.464-5.971 12.193-12.551-.272-6.62-4.617-13.125-12.054-12.986l-.243 3.984c-5.73-.156-16.889 3.041-20.925 8.482 3.613 5.263 15.078 9.695 21.066 9.48z"/><path d="M684.206 398.074c4.165-.24 6.54 3.848 6.54 5.878 0 2.03-1.721 6.142-5.886 6.142-6.525.606-10.998-2.473-14.658-6.142 3.33-4.873 7.194-5.878 14.004-5.878z" stroke-width=".993" stroke-linecap="round"/><circle transform="matrix(1.98513 0 0 1.98513 10.01 -500.658)" cx="338.56" cy="455.73" r="1.957" stroke-width=".5" stroke-linecap="round"/><path d="M714.362 375.157c24.893 7.946 25.886 44.065.667 55.684" stroke-width="1.191"/><path stroke-width=".993" stroke-linecap="round" d="M694.565 392.586l17.297-10.575 1.262 2.063-17.297 10.576z"/><path d="M724.253 400.368l-12.73-18.817M706.957 411.853l-12.59-20.617" stroke-width="1.985"/><g transform="matrix(1.98513 0 0 1.98513 10.01 -502.839)" stroke-linecap="round"><circle cx="354.672" cy="456.695" r="7.005" stroke-width=".6"/><circle transform="translate(.45 -.174)" cx="354.221" cy="456.869" r="1.464" stroke-width=".5"/></g><path d="M711.523 402.444l5.12 3.044M715.605 401.406l-3.044 5.12" stroke-width=".794"/><path d="M627.545 396.765l29.354.031c6.69-.245 6.212 11.22 0 10.736h-29.926c-3.052-3.319-2.05-7.448.572-10.767zM748.353 375.298c26.5 1.383 28.434 4.076 35.364 10.992l-35.603-.24zM749.066 430.02c26.5-1.382 28.673-3.836 35.602-10.752h-35.841z" stroke-width=".794" stroke-linecap="round"/><path d="M663.571 404.094l6.676.056" stroke-width=".993"/><path d="M217.469 443.563c-7.365 0-13.313 5.916-13.313 13.28v.126a13.296 13.296 0 0013.313 13.312H317c-11.152-2.51-21.961-7.199-28.156-13.437 7.966-5.984 17.694-10.691 27.969-13.281z" stroke-width=".51" stroke-linecap="round" transform="matrix(2.0166 0 0 1.98513 .388 -502.97)"/><path d="M227.135 443.548v26.801M227.16 447.028h78.89M226.808 466.75h78.89M288.768 447.07v19.053" stroke-width=".5" transform="matrix(2.0166 0 0 1.98513 .388 -502.97)"/><path d="M217.469 443.563c-7.365 0-13.313 5.916-13.313 13.28v.126a13.296 13.296 0 0013.313 13.312H317c-11.152-2.51-21.961-7.199-28.156-13.437 7.966-5.984 17.694-10.691 27.969-13.281z" stroke-width=".51" stroke-linecap="round" transform="matrix(2.0166 0 0 1.98513 .388 -502.97)"/><path d="M665.883 399.474l-.35-25.767M666.028 433.807V406.99" stroke-width=".993"/><g transform="matrix(1.98513 0 0 1.98513 10.311 -92.858)" stroke-width=".5" stroke-linecap="round"><path d="M623.805 245.771h16.436v7.736h-16.436z"/><circle transform="translate(.637 -23.675)" cx="627.189" cy="273.314" r="3.173"/><circle transform="translate(8.62 -23.675)" cx="627.189" cy="273.314" r="3.173"/></g><path d="M474.41 393.64h8.738M516.357 393.64h10.312M556.033 393.64h10.487M474.41 413.49h8.738M516.357 413.49h10.312M556.033 413.49h10.487" stroke-width="1.985"/><g transform="matrix(1.98513 0 0 1.98513 10.01 -100.653)"><rect ry="1.585" y="268.962" x="627.594" height="3.17" width="12.403"/><rect width="12.403" height="3.17" x="653.594" y="270.962" ry="1.585"/></g><g transform="matrix(1.98513 0 0 -1.98513 10.16 908.459)"><rect width="12.403" height="3.17" x="627.594" y="268.962" ry="1.585"/><rect ry="1.585" y="270.962" x="653.594" height="3.17" width="12.403"/></g><g transform="matrix(1.98513 0 0 1.98513 10.01 -502.839)"><circle cx="354.672" cy="456.695" r="7.005"/><circle transform="translate(.45 -.174)" cx="354.221" cy="456.869" r="1.464"/></g><path d="M708.955 374.941h5.657c9.779 4.579 18.697 14.39 18.895 25.669.197 11.279-6.464 24.157-17.9 31.015l-6.9-.497c12.761-7.52 20.753-19.167 20.542-28.767-.224-10.165-7.266-20.792-20.294-27.42z"/><g transform="matrix(1.98513 0 0 1.98513 9.81 -501.45)"><g transform="matrix(.87859 0 0 .91427 39.96 9.727)"><circle transform="translate(17.321 -3.564)" cx="321.281" cy="501.177" r=".604"/><circle transform="translate(17.321 -1.115)" cx="321.281" cy="501.177" r=".604"/><circle transform="translate(17.321 -6.014)" cx="321.281" cy="501.177" r=".604"/><circle transform="translate(17.321 1.335)" cx="321.281" cy="501.177" r=".604"/></g><circle transform="matrix(.87859 0 0 .91427 49.848 6.469)" cx="321.281" cy="501.177" r=".604"/><circle transform="matrix(.87859 0 0 .91427 49.848 8.708)" cx="321.281" cy="501.177" r=".604"/><circle transform="matrix(.87859 0 0 .91427 49.848 4.229)" cx="321.281" cy="501.177" r=".604"/><circle transform="matrix(.87859 0 0 .91427 49.848 10.948)" cx="321.281" cy="501.177" r=".604"/><g transform="matrix(.87859 0 0 .91427 36.732 9.727)"><circle transform="translate(17.321 -3.564)" cx="321.281" cy="501.177" r=".604"/><circle transform="translate(17.321 -1.115)" cx="321.281" cy="501.177" r=".604"/><circle transform="translate(17.321 -6.014)" cx="321.281" cy="501.177" r=".604"/><circle transform="translate(17.321 1.335)" cx="321.281" cy="501.177" r=".604"/></g><circle transform="matrix(.87859 0 0 .91427 49.848 2.229)" cx="321.281" cy="501.177" r=".604"/><circle transform="matrix(.87859 0 0 .91427 51.848 2.229)" cx="321.281" cy="501.177" r=".604"/></g><g transform="matrix(1.74411 0 0 -1.81494 89.137 1288.88)"><circle transform="translate(17.321 -3.564)" cx="321.281" cy="501.177" r=".604"/><circle transform="translate(17.321 -1.115)" cx="321.281" cy="501.177" r=".604"/><circle transform="translate(17.321 -6.014)" cx="321.281" cy="501.177" r=".604"/><circle transform="translate(17.321 1.335)" cx="321.281" cy="501.177" r=".604"/></g><circle transform="matrix(1.74411 0 0 -1.81494 108.764 1299.795)" cx="321.281" cy="501.177" r=".604"/><circle transform="matrix(1.74411 0 0 -1.81494 108.764 1286.457)" cx="321.281" cy="501.177" r=".604"/><circle transform="matrix(1.74411 0 0 -1.81494 112.94 1295.349)" cx="321.281" cy="501.177" r=".604"/><circle transform="matrix(1.74411 0 0 -1.81494 112.94 1299.795)" cx="321.281" cy="501.177" r=".604"/><circle transform="matrix(1.74411 0 0 -1.81494 112.94 1286.457)" cx="321.281" cy="501.177" r=".604"/><circle transform="matrix(1.74411 0 0 -1.81494 108.764 1303.765)" cx="321.281" cy="501.177" r=".604"/><circle transform="matrix(1.74411 0 0 -1.81494 112.735 1303.765)" cx="321.281" cy="501.177" r=".604"/><circle transform="matrix(1.74411 0 0 -1.81494 83.675 1292.614)" cx="321.281" cy="501.177" r=".604"/><g transform="matrix(1.98513 0 0 1.98513 10.01 -501.649)"><circle transform="matrix(.87859 0 0 -.91427 25.936 920.982)" cx="321.281" cy="501.177" r=".604"/><circle transform="matrix(.87859 0 0 -.91427 23.047 920.816)" cx="321.281" cy="501.177" r=".604"/></g><g transform="matrix(1.98513 0 0 1.98513 8.005 -559.135)"><circle transform="matrix(.87859 0 0 -.91427 30.217 952.205)" cx="321.281" cy="501.177" r=".604"/><circle transform="matrix(.87859 0 0 -.91427 30.217 949.965)" cx="321.281" cy="501.177" r=".604"/><circle transform="matrix(.87859 0 0 -.91427 30.217 947.726)" cx="321.281" cy="501.177" r=".604"/></g><g transform="matrix(1.98513 0 0 1.98513 17.572 -558.801)"><circle transform="matrix(.87859 0 0 -.91427 30.217 952.205)" cx="321.281" cy="501.177" r=".604"/><circle transform="matrix(.87859 0 0 -.91427 30.217 949.965)" cx="321.281" cy="501.177" r=".604"/><circle transform="matrix(.87859 0 0 -.91427 30.217 947.726)" cx="321.281" cy="501.177" r=".604"/></g><g transform="matrix(1.98513 0 0 1.98513 21.78 -558.801)"><circle transform="matrix(.87859 0 0 -.91427 30.217 952.205)" cx="321.281" cy="501.177" r=".604"/><circle transform="matrix(.87859 0 0 -.91427 30.217 949.965)" cx="321.281" cy="501.177" r=".604"/><circle transform="matrix(.87859 0 0 -.91427 30.217 947.726)" cx="321.281" cy="501.177" r=".604"/></g><path stroke-width=".993" d="M648.713 413.405h12.366v12.032h-12.366z"/><path stroke-width=".993" d="M646.039 415.284h5.347v2.006h-5.347zM646.039 422.033h5.347v2.006h-5.347z"/><g transform="matrix(1.98513 0 0 1.98513 -18.232 -576.56)"><g transform="matrix(.87859 0 0 -.91427 17.102 948.946)"><circle transform="translate(17.321 -3.564)" cx="321.281" cy="501.177" r=".604"/><circle transform="translate(17.321 -1.115)" cx="321.281" cy="501.177" r=".604"/><circle transform="translate(17.321 -6.014)" cx="321.281" cy="501.177" r=".604"/><circle transform="translate(17.321 1.335)" cx="321.281" cy="501.177" r=".604"/></g><circle transform="matrix(.87859 0 0 -.91427 32.217 956.445)" cx="321.281" cy="501.177" r=".604"/></g><g transform="matrix(1.98513 0 0 1.98513 -18.78 -572.353)"><circle transform="matrix(.87859 0 0 -.91427 30.217 952.205)" cx="321.281" cy="501.177" r=".604"/><circle transform="matrix(.87859 0 0 -.91427 30.217 949.965)" cx="321.281" cy="501.177" r=".604"/><circle transform="matrix(.87859 0 0 -.91427 30.217 947.726)" cx="321.281" cy="501.177" r=".604"/></g><g transform="matrix(1.98513 0 0 1.98513 -13.312 -576.56)"><g transform="matrix(.87859 0 0 -.91427 17.102 948.946)"><circle transform="translate(17.321 -3.564)" cx="321.281" cy="501.177" r=".604"/><circle transform="translate(17.321 -1.115)" cx="321.281" cy="501.177" r=".604"/><circle transform="translate(17.321 -6.014)" cx="321.281" cy="501.177" r=".604"/><circle transform="translate(17.321 1.335)" cx="321.281" cy="501.177" r=".604"/></g><circle transform="matrix(.87859 0 0 -.91427 32.217 956.445)" cx="321.281" cy="501.177" r=".604"/></g><g transform="matrix(1.98513 0 0 1.98513 -8.295 -576.56)"><g transform="matrix(.87859 0 0 -.91427 17.102 948.946)"><circle transform="translate(17.321 -3.564)" cx="321.281" cy="501.177" r=".604"/><circle transform="translate(17.321 -1.115)" cx="321.281" cy="501.177" r=".604"/><circle transform="translate(17.321 -6.014)" cx="321.281" cy="501.177" r=".604"/><circle transform="translate(17.321 1.335)" cx="321.281" cy="501.177" r=".604"/></g><circle transform="matrix(.87859 0 0 -.91427 32.217 956.445)" cx="321.281" cy="501.177" r=".604"/></g><g transform="matrix(1.98513 0 0 1.98513 -2.56 -576.56)"><g transform="matrix(.87859 0 0 -.91427 17.102 948.946)"><circle transform="translate(17.321 -3.564)" cx="321.281" cy="501.177" r=".604"/><circle transform="translate(17.321 -1.115)" cx="321.281" cy="501.177" r=".604"/><circle transform="translate(17.321 -6.014)" cx="321.281" cy="501.177" r=".604"/><circle transform="translate(17.321 1.335)" cx="321.281" cy="501.177" r=".604"/></g><circle transform="matrix(.87859 0 0 -.91427 32.217 956.445)" cx="321.281" cy="501.177" r=".604"/></g><g transform="matrix(1.98513 0 0 1.98513 10.01 -527.655)"><circle transform="matrix(.87859 0 0 -.91427 25.936 920.982)" cx="321.281" cy="501.177" r=".604"/><circle transform="matrix(.87859 0 0 -.91427 23.047 920.816)" cx="321.281" cy="501.177" r=".604"/></g><circle transform="matrix(0 1.74411 1.81494 0 -281.12 -169.828)" cx="321.281" cy="501.177" r=".604"/><circle transform="matrix(0 1.74411 1.81494 0 -273.894 -169.828)" cx="321.281" cy="501.177" r=".604"/><circle transform="matrix(0 1.74411 1.81494 0 -267.463 -169.828)" cx="321.281" cy="501.177" r=".604"/><path d="M660.986 380.83a3.502 3.502 0 00-2.594 2.35l-6.664 1.47a1.603 1.603 0 00-1.228 1.922l.054.242c.194.878 1.059 1.482 1.936 1.289l6.724-1.483c.82.867 2.032 1.33 3.282 1.055a3.546 3.546 0 002.595-2.35l6.663-1.47c.878-.194 1.469-1.12 1.275-1.997l-.054-.242c-.193-.877-1.106-1.408-1.983-1.214l-6.664 1.47a3.52 3.52 0 00-3.342-1.042z" stroke-width=".993" stroke-linecap="round"/><path d="M665.917 373.261v61.41c-28.435-.08-66.666-15.691-83.87-31.064 25.567-15.372 56.152-30.027 83.87-30.346z"/><path d="M720.413 377.43l27.471.481M725.594 381.526h22.531M729.088 385.502l18.796.12M731.498 389.743h54.34M733.185 393.394l54.702.12M734.149 401.624h43.376M734.378 405.912l54.702.121M731.98 414.48h54.943M728.847 419.227h19.037M725.594 423.938h22.652M721.256 427.794h26.749M733.534 397.239l54.702.12" stroke-width="1.985"/><circle transform="matrix(1.98513 0 0 1.98513 7.703 -507.426)" cx="388.98" cy="457.858" r="3.653" stroke-width=".4" stroke-linecap="round"/><circle transform="matrix(1.98513 0 0 1.98513 7.703 -507.426)" cx="388.98" cy="457.858" r="2.318" stroke-width=".4" stroke-linecap="round"/><path d="M733.33 410.107l54.701.12" stroke-width="1.985"/></g></svg>